<svg width="77" height="89" viewBox="0 0 77 89" fill="none" xmlns="http://www.w3.org/2000/svg">
<path d="M50.3942 12.606C50.0501 15.2038 49.3413 17.7059 48.2647 20.1151V19.9406C48.2647 19.8871 48.2647 19.8336 48.2647 19.783C48.3685 18.8007 48.3389 17.8269 48.1758 16.8531C48.0482 16.2001 47.8406 15.5556 47.7309 14.9026C47.547 13.5685 47.7042 12.2682 48.1995 11.0045C46.8204 11.9784 45.2871 12.6172 43.5996 12.9156C42.1167 13.1886 40.5834 13.1604 39.0768 13.2955C33.9965 13.7571 31.5319 16.8221 30.6867 20.768L30.5918 21.2465L30.5443 21.5251C30.5384 21.5927 30.5384 21.6574 30.5443 21.725C30.5443 21.8291 30.5443 21.936 30.4969 22.043L30.4465 22.4821C30.4465 22.5806 30.4465 22.6706 30.4465 22.7691C30.4465 22.8705 30.4465 22.9211 30.4465 22.9915C30.4465 23.059 30.4465 23.1801 30.4465 23.2786C30.4465 23.3771 30.4465 23.3911 30.4465 23.4446C30.4465 23.4981 30.4465 23.7036 30.4465 23.8386C30.4465 23.9766 30.4465 24.137 30.4465 24.2805C30.4465 26.7066 30.3189 28.7415 27.8959 30.236C26.0038 31.4097 23.6193 31.48 21.3623 31.5841C20.3925 31.6236 19.4287 31.7333 18.4767 31.9191C18.1653 31.9725 17.8627 32.0485 17.5662 32.1245L17.3289 32.1921C17.1361 32.2371 16.9523 32.299 16.7684 32.3581C15.9261 32.6283 15.1283 32.9858 14.378 33.4361C14.0695 33.6247 13.7878 33.8414 13.5327 34.0891L13.3815 34.2326C13.073 34.5647 12.8091 34.9221 12.5837 35.3105C12.5511 35.3528 12.5214 35.3978 12.4947 35.4456V35.485L12.3998 35.6511C12.3346 35.7637 12.2723 35.8875 12.2159 36.0085C12.1448 36.1521 12.0795 36.2872 12.0172 36.4335C11.6139 37.2385 11.2788 38.0659 11.0118 38.9215C10.9644 39.096 10.9229 39.2621 10.8754 39.4366C10.828 39.6111 10.8042 39.7856 10.7716 39.9517C10.656 40.5596 10.5788 41.1731 10.5314 41.7895C10.5314 42.3496 10.5314 42.9041 10.5314 43.4557C10.5314 43.5627 10.5314 43.6612 10.5314 43.7597C10.5314 43.8582 10.5314 43.9201 10.5314 44.0045V44.3535C10.5314 44.5252 10.5314 44.6997 10.5314 44.8742C10.5314 45.0487 10.5314 45.0797 10.5314 45.1782V45.4512C10.5314 45.5581 10.5314 45.6566 10.5729 45.7551C10.6115 45.8537 10.6204 46.1267 10.6441 46.318C10.6678 46.5066 10.6915 46.667 10.7242 46.8415C10.7568 47.016 10.7242 47.0442 10.7716 47.1511C10.8428 47.6127 10.9318 48.0856 11.0207 48.5471L10.7568 48.3586C10.0183 47.8182 9.35992 47.2074 8.7727 46.5207C8.18844 45.834 7.69316 45.0937 7.29278 44.2972C6.88944 43.5007 6.5899 42.6705 6.39119 41.8064C6.19545 40.9424 6.10351 40.0699 6.12131 39.1861C6.2429 34.6351 9.37771 30.5146 13.251 27.8071C14.894 26.8023 16.451 25.6934 17.925 24.4775C19.1113 23.3292 20.0693 22.0289 20.7959 20.5795C21.5551 19.1469 22.1156 17.6468 22.4804 16.0791C22.7918 14.6606 22.9194 13.2111 23.2782 11.801C23.6134 10.3206 24.1709 8.91899 24.942 7.59337C25.7161 6.27055 26.674 5.08002 27.8158 4.02458C27.8633 3.97955 27.9137 3.93452 27.9671 3.89793C28.2399 3.64744 28.5217 3.41102 28.8212 3.19149L28.9873 3.07891L29.186 2.92693L29.3224 2.83405C30.0046 2.35559 30.7223 1.93623 31.4845 1.58441C33.0474 0.858272 34.6964 0.422025 36.4284 0.278485H36.7072C37.7185 0.213752 38.7239 0.250341 39.7234 0.391065H39.9636C41.7074 0.664072 43.3268 1.24949 44.8185 2.15294C45.9692 2.84249 46.9895 3.67277 47.8822 4.64659C49.0714 5.92437 49.8662 7.39354 50.2755 9.05409C50.5365 10.2305 50.5751 11.4155 50.3942 12.606Z" fill="#1F1F1F"/>
<path d="M48.4249 11.0668L48.0424 10.9458C48.2618 10.3576 48.5287 9.79186 48.8401 9.24585L49.199 9.42598C48.8965 9.9551 48.6385 10.5011 48.4249 11.0668Z" fill="#1F1F1F"/>
<path d="M37.5702 29.575C36.6449 29.5778 35.7878 29.347 35.0019 28.8854C34.0855 28.2972 33.3055 27.5767 32.6589 26.7239C32.0124 25.8683 31.5408 24.9367 31.2443 23.9234L31.6357 23.8024C31.9145 24.7706 32.3624 25.6656 32.9763 26.4818C33.5931 27.3008 34.3346 27.9932 35.2095 28.5589C35.859 28.9361 36.5678 29.1443 37.327 29.1866C38.0892 29.226 38.8158 29.0937 39.5069 28.7869C42.8819 27.2699 48.76 23.1804 50.1955 12.0969L50.5929 12.142C49.1337 23.4168 43.1281 27.6245 39.6759 29.1359C39.0086 29.4286 38.3057 29.575 37.5702 29.575Z" fill="#1F1F1F"/>
<path d="M54.1993 43.2987H53.793C53.793 42.9863 53.793 42.6767 53.8316 42.3587C53.9354 40.9655 53.9205 39.5751 53.7841 38.1848C53.3837 35.0157 51.7348 33.0511 48.4309 31.8128L44.1424 30.1972C42.9443 29.7497 41.7105 29.2882 41.1826 28.1201L41.5563 27.9597C42.019 28.9926 43.1519 29.4007 44.2937 29.8342L48.5911 31.4328C52.0521 32.7303 53.7841 34.7933 54.1756 38.1257C54.3091 39.5357 54.3269 40.9458 54.2231 42.3587C54.2231 42.7133 54.2053 42.9863 54.1993 43.2987Z" fill="#1F1F1F"/>
<path d="M49.5342 70.4244H49.4304C48.9885 70.3569 48.5555 70.264 48.1284 70.143H48.0483C47.7399 70.0754 47.4285 69.9938 47.3484 69.7715C47.3039 69.6504 47.3247 69.5379 47.4107 69.4393C47.4819 69.3634 47.5708 69.3127 47.6746 69.2874C48.0335 69.1776 48.3983 69.0904 48.766 69.0284H48.8313C49.0537 69.0115 49.2643 68.9496 49.46 68.8483C49.5342 68.8033 49.5698 68.7385 49.5727 68.6569C49.3977 68.6091 49.2198 68.5809 49.0389 68.5669H48.9114C47.6124 68.4008 46.3311 68.4937 45.0737 68.8483C43.0303 69.5576 40.9305 69.7743 38.7744 69.4985C37.5288 69.2649 36.4611 69.096 35.5121 68.9524C32.8251 68.6513 30.2597 67.9505 27.8159 66.8528C27.7655 66.8303 27.7299 66.7965 27.7121 66.7459C27.6913 66.698 27.6943 66.6474 27.721 66.6023C27.7447 66.5517 27.7803 66.5179 27.8337 66.501C27.8871 66.4813 27.9405 66.4813 27.9909 66.5038C30.3932 67.5621 32.9111 68.2291 35.5447 68.5049C36.4937 68.6569 37.5703 68.823 38.8218 69.0594C40.9186 69.4619 43.1845 68.9215 44.9224 68.4233C46.2303 68.0518 47.559 67.9505 48.9114 68.1194H49.0389C49.2761 68.1334 49.5075 68.1756 49.7329 68.2488C49.81 68.2713 49.8663 68.3192 49.9079 68.3839C49.9286 68.4458 49.9286 68.5049 49.9079 68.5669C49.9138 68.7948 49.8159 68.9721 49.6113 69.096C49.3681 69.2395 49.1012 69.3183 48.8165 69.3408H48.7423C48.3894 69.3943 48.0454 69.4759 47.7073 69.5829C47.82 69.6336 47.9416 69.6701 48.0661 69.6898H48.1699C48.5762 69.794 48.9677 69.8643 49.4304 69.9319H49.5253C49.5816 69.9375 49.6261 69.9628 49.6617 70.0051C49.6943 70.0501 49.7032 70.0979 49.6914 70.1514C49.724 70.2105 49.721 70.2696 49.6884 70.3287C49.6528 70.385 49.6024 70.4188 49.5342 70.4244Z" fill="#1F1F1F"/>
<path d="M44.0386 73.9069C42.0396 73.6506 40.0318 73.507 38.0151 73.476C36.7724 73.4281 35.6247 73.3915 34.5155 73.307V72.9211C35.5832 73.0056 36.7576 73.0423 38.0003 73.0873C40.0318 73.1183 42.0545 73.2648 44.0682 73.5295L44.0386 73.9069Z" fill="#1F1F1F"/>
<path d="M45.3524 63.8106C44.9639 63.8106 44.1483 63.7655 43.9348 63.4222C43.8369 63.2561 43.8547 63.1013 43.9911 62.9606C44.0772 62.8508 44.1928 62.7776 44.3322 62.7411C44.525 62.6876 44.7089 62.6482 44.9461 62.6032C45.4414 62.5215 45.9426 62.423 46.429 62.3161C46.9183 62.2091 47.5945 62.0515 48.1758 61.8911L43.4395 61.7391C43.0777 61.7588 42.7396 61.6828 42.4282 61.5111C42.2829 61.4211 42.1791 61.2972 42.1198 61.1424C42.0575 60.9876 42.0515 60.83 42.099 60.6696C42.1405 60.5598 42.2147 60.4726 42.3185 60.4107C42.4223 60.3487 42.535 60.3234 42.6595 60.3347C43.1696 60.3347 43.6946 60.3347 44.2047 60.3347H44.5813C45.3791 60.2981 46.8057 60.208 47.9059 60.0926L44.2699 59.9406C43.5819 59.9406 42.8908 59.8646 42.2028 59.8112H41.8617C41.494 59.814 41.1351 59.7661 40.7852 59.6676C40.542 59.5945 40.37 59.4481 40.2662 59.2286C40.1683 59.0625 40.1683 58.8936 40.2662 58.7276C40.4411 58.4546 40.8949 58.4011 41.2715 58.3927C42.7307 58.3336 44.0623 58.2491 45.3465 58.1675C46.343 58.0971 47.3632 58.038 48.4576 57.9846C47.5204 57.7425 46.5684 57.6074 45.6016 57.5821H44.9165C44.3737 57.5821 43.8221 57.5821 43.2734 57.492H43.2082C42.1168 57.3991 41.6126 57.2331 41.4525 56.946C41.3783 56.7912 41.402 56.6505 41.5266 56.5266C41.7312 56.3353 41.9774 56.2339 42.268 56.2255C45.474 55.7189 48.6919 55.6176 51.9246 55.9215C51.367 55.4515 50.8183 54.9646 50.2904 54.4805C49.1901 53.456 48.8402 52.485 49.2939 51.742C49.3236 51.6857 49.371 51.6576 49.4363 51.6491C49.4897 51.6238 49.543 51.6238 49.5964 51.6491C51.0526 52.668 52.6274 53.4842 54.3179 54.0921C56.0707 54.7141 57.69 55.5669 59.1758 56.6505C60.7714 57.6665 63.2745 57.613 65.0362 57.492C65.1489 57.5117 65.2052 57.5765 65.2052 57.6834C65.2052 57.7932 65.1489 57.8579 65.0362 57.8776C63.2122 58.0071 60.5875 58.0521 58.897 56.9601C57.4379 55.8906 55.8423 55.0519 54.1103 54.4496C52.4702 53.8529 50.934 53.0733 49.5015 52.1051C49.2702 52.865 50.0205 53.6981 50.5306 54.1597C51.2009 54.7901 51.9097 55.4065 52.6274 55.9975C52.6986 56.0594 52.7134 56.1326 52.6779 56.2171C52.6393 56.3015 52.5711 56.3437 52.4762 56.3381C49.0656 55.9553 45.6698 56.0313 42.2829 56.5661C41.9388 56.6195 41.8291 56.6786 41.7965 56.7237C41.7639 56.7715 41.8914 56.9601 43.1993 57.0727H43.3446C43.8784 57.1261 44.4301 57.143 44.9402 57.1655H45.6253C46.8383 57.1824 48.0186 57.3823 49.1664 57.765C49.3236 57.8157 49.3888 57.9198 49.3621 58.0746C49.3354 58.2322 49.2376 58.311 49.0715 58.311C47.7636 58.3645 46.5506 58.4461 45.3791 58.5221C44.2047 58.5981 42.7604 58.691 41.2953 58.7417C40.7674 58.7417 40.6487 58.8655 40.625 58.9021C40.6013 58.9415 40.625 59.0006 40.625 59.04C40.6873 59.1554 40.7822 59.2342 40.9127 59.2736C41.2271 59.3552 41.5503 59.3946 41.8766 59.3946H42.2265C42.9146 59.4481 43.5997 59.4931 44.2848 59.5241C45.4562 59.586 48.2737 59.6986 49.2287 59.7211C49.3918 59.7239 49.4837 59.8027 49.5015 59.9575C49.5223 60.1123 49.4511 60.2108 49.2939 60.253C47.7339 60.4866 46.165 60.633 44.5873 60.6921H44.2225C43.7035 60.6921 43.1696 60.7371 42.6269 60.6921C42.5142 60.6921 42.4756 60.7371 42.4667 60.7597C42.446 60.9257 42.5023 61.0608 42.6417 61.1621C42.8908 61.2888 43.1578 61.3423 43.4395 61.3226L48.944 61.4971C49.0982 61.5055 49.1901 61.5843 49.2138 61.7307C49.2346 61.8826 49.1664 61.9783 49.0151 62.0205C48.2174 62.2626 47.3395 62.4821 46.5031 62.6651C46.0168 62.772 45.5066 62.8705 45.0025 62.9606C44.8127 62.9887 44.6229 63.031 44.436 63.0816C44.3856 63.0957 44.3411 63.1182 44.2996 63.1492V63.2026C44.3797 63.3405 45.2249 63.4222 45.5304 63.394C47.1853 63.1773 48.8491 63.0957 50.5217 63.1435C51.023 63.1435 51.536 63.2195 52.0284 63.2646C52.7223 63.3237 53.4401 63.394 54.1429 63.394C54.5759 63.3912 55.006 63.3687 55.436 63.3237C55.7593 63.2871 56.0825 63.2702 56.4088 63.273C56.8981 63.273 57.3578 63.1604 57.7879 62.9381C57.8383 62.9184 57.8917 62.9184 57.9421 62.9381C57.9955 62.9578 58.031 62.9944 58.0518 63.045C58.0755 63.0929 58.0785 63.1407 58.0577 63.1914C58.037 63.242 57.9984 63.2758 57.948 63.2955C57.4676 63.5376 56.9574 63.6558 56.4147 63.6501C56.1923 63.6501 55.9283 63.6501 55.4746 63.7036C55.0327 63.7543 54.5878 63.7796 54.1429 63.7796C53.4223 63.7684 52.7045 63.7233 51.9898 63.6445C51.5034 63.5967 50.9992 63.5516 50.5069 63.5291C48.8491 63.4925 47.2031 63.5826 45.56 63.8021L45.3524 63.8106Z" fill="#1F1F1F"/>
<path d="M27.8722 66.8445C27.8218 66.8445 27.7743 66.8304 27.7358 66.7995C26.7749 65.9776 26.0453 64.9982 25.55 63.864C24.1947 61.238 23.2219 58.4883 22.6317 55.6175C22.0415 52.7439 21.8576 49.8506 22.0741 46.9319C22.0741 46.8757 22.0949 46.8306 22.1364 46.794C22.1809 46.7574 22.2313 46.7434 22.2877 46.749C22.4211 46.7603 22.4864 46.8278 22.4804 46.9545C22.2639 49.8393 22.4449 52.7017 23.0291 55.5387C23.6134 58.3785 24.5743 61.0945 25.9178 63.6895C26.3834 64.7815 27.0803 65.7187 28.0057 66.504C28.0976 66.594 28.0976 66.6841 28.0057 66.777C27.973 66.8164 27.9256 66.8389 27.8722 66.8445Z" fill="#1F1F1F"/>
<path d="M65.8279 57.4074C65.7657 57.4131 65.7152 57.3962 65.6767 57.354C65.6114 57.278 65.6114 57.202 65.6767 57.126C66.3766 56.4139 66.946 55.6202 67.385 54.7393C67.8239 53.8584 68.1145 52.9352 68.251 51.9698V51.8769C68.3785 51.3028 68.42 50.7202 68.3815 50.1348C68.3399 49.5494 68.2183 48.978 68.0167 48.4236C67.812 47.8663 67.5362 47.3484 67.1833 46.8643C66.8333 46.3802 66.4211 45.9496 65.9466 45.5725C64.7484 44.5424 63.3664 43.8416 61.8004 43.4729C60.2582 43.0507 58.6864 42.8565 57.0849 42.8874C56.1447 42.879 55.2342 43.0394 54.3593 43.3659C53.4815 43.6755 52.8112 44.2159 52.3486 44.9899C52.1439 45.4177 51.9956 45.8624 51.9007 46.3239C51.7732 46.9938 51.5093 47.6074 51.1029 48.1674C50.575 48.7247 49.9433 49.1413 49.2049 49.4114C48.6176 49.6338 48.0838 49.9462 47.6093 50.3459C47.0606 50.9144 46.7492 51.5842 46.678 52.3554C46.6069 53.0647 46.6246 53.7739 46.7344 54.4804C46.7373 54.5338 46.7225 54.5789 46.6869 54.6211C46.6513 54.6633 46.6069 54.6858 46.5505 54.6914C46.4942 54.6999 46.4437 54.6858 46.3992 54.6492C46.3548 54.6155 46.331 54.5704 46.3281 54.5169C46.2124 53.7824 46.1976 53.0478 46.2777 52.3104C46.3518 51.4379 46.6988 50.678 47.3246 50.0335C47.8258 49.6 48.3922 49.2651 49.021 49.0259C49.7001 48.7782 50.2844 48.401 50.7767 47.8944C51.1385 47.3766 51.3728 46.8109 51.4796 46.1945C51.5804 45.7076 51.7435 45.2375 51.966 44.7844C52.4613 43.9035 53.1968 43.2815 54.1755 42.9184C55.1008 42.575 56.0587 42.409 57.0523 42.4174C58.6805 42.3921 60.276 42.5919 61.839 43.0169C63.482 43.3941 64.9323 44.1174 66.1927 45.1869C66.6939 45.5865 67.1269 46.0425 67.4947 46.5547C67.8624 47.067 68.1531 47.6158 68.3637 48.204C68.5742 48.7923 68.6988 49.3946 68.7373 50.0166C68.7759 50.6358 68.7255 51.2493 68.5861 51.8544V51.9304C68.4467 52.9324 68.1472 53.8921 67.6904 54.804C67.2307 55.7187 66.6376 56.5434 65.905 57.278C65.8991 57.3314 65.8724 57.3737 65.8279 57.4074Z" fill="#1F1F1F"/>
<path d="M39.5158 58.6825C39.4773 58.6909 39.4358 58.6909 39.3972 58.6825C38.3562 57.931 37.6415 56.96 37.25 55.7779C36.9653 54.9673 36.7399 54.1427 36.5738 53.304C36.4997 53 36.4285 52.6904 36.3484 52.378C36.2861 52.0487 36.1675 51.7419 35.9896 51.452C35.8057 51.2297 35.5921 51.0327 35.3519 50.861L33.095 49.1329C32.57 48.7304 32.3862 48.3195 32.5849 47.9621C32.6323 47.8804 32.7035 47.8467 32.8014 47.8635C32.9704 47.8945 33.1395 47.9339 33.3026 47.9874L32.6887 47.2641C32.5671 47.143 32.484 46.9995 32.4425 46.8334C32.4158 46.6983 32.4455 46.5773 32.5285 46.4676C32.5938 46.3747 32.6827 46.3184 32.8014 46.3015C32.9378 46.2931 33.0623 46.3268 33.175 46.4L33.8601 46.78L33.175 45.747C33.0742 45.626 33.0149 45.4853 33.0001 45.3305C32.9971 45.1673 33.0653 45.0322 33.1988 44.928C33.3708 44.7845 33.5695 44.731 33.7979 44.762C34.0737 44.8239 34.3169 44.9477 34.5245 45.1335H34.563C34.8003 45.3164 35.0464 45.4853 35.3045 45.6429L35.4083 45.702C35.4972 45.7667 35.5951 45.823 35.6959 45.8709C35.6959 45.8709 35.6959 45.7949 35.6307 45.733C35.5358 45.5444 35.4646 45.3755 35.3845 45.2095L35.3134 45.049C35.2007 44.8267 35.1354 44.5931 35.1206 44.3454C35.1028 44.1963 35.1354 44.0612 35.2185 43.9345C35.4883 43.5799 35.8858 43.8219 36.0133 43.9345L36.1111 43.9964C36.4285 44.1681 36.7191 44.3764 36.9801 44.6184C37.4754 45.0631 37.944 45.5331 38.3829 46.0285C38.5431 45.7583 38.7299 45.505 38.9405 45.2714C39.1273 45.035 39.3735 44.9111 39.6819 44.8999C39.8421 44.9055 39.9637 44.9702 40.0497 45.0969C40.1446 45.2545 40.1653 45.4206 40.1149 45.5979C40.0675 45.9047 40.0052 46.2058 39.9221 46.507C39.765 46.9516 39.6701 47.4104 39.6434 47.8804C39.679 48.7614 40.02 49.5213 40.6636 50.1545C41.3161 50.7962 42.0338 51.3535 42.8256 51.832L47.8259 55.094C47.8733 55.1249 47.903 55.1672 47.9119 55.2206C47.9238 55.2741 47.9149 55.322 47.8822 55.367C47.8496 55.4092 47.8081 55.4374 47.7518 55.4458C47.6984 55.4542 47.648 55.443 47.6035 55.412L42.5943 52.15C41.7728 51.6603 41.0284 51.0805 40.3611 50.4135C39.6374 49.6958 39.2608 48.8374 39.2371 47.841C39.2667 47.34 39.3646 46.8475 39.5307 46.369C39.6107 46.096 39.6997 45.8005 39.7561 45.5219C39.7561 45.4684 39.7561 45.353 39.7561 45.308C39.7353 45.2967 39.7175 45.2967 39.6997 45.308C39.5336 45.3333 39.4002 45.4093 39.2993 45.536C39.0413 45.8315 38.8248 46.1551 38.6558 46.507C38.6202 46.5689 38.5668 46.6083 38.4956 46.6195C38.4185 46.6336 38.3592 46.6111 38.3117 46.552C37.8165 45.9835 37.2856 45.4459 36.7162 44.9449C36.4759 44.7226 36.209 44.5312 35.9184 44.3764C35.8769 44.3567 35.8353 44.3342 35.7997 44.306C35.5506 44.1625 35.5358 44.185 35.5121 44.2244C35.4943 44.2779 35.4943 44.3342 35.5121 44.3905C35.5328 44.5847 35.5862 44.7732 35.6722 44.9505L35.7434 45.111C35.8235 45.277 35.8946 45.4459 35.9836 45.6119C36.1023 45.7808 36.1378 45.9666 36.0874 46.1664C36.0459 46.2537 35.9777 46.3099 35.8798 46.3325C35.6633 46.3944 35.432 46.2565 35.168 46.082L35.082 46.0285C34.8062 45.8653 34.5393 45.6879 34.2842 45.4966H34.2427C34.0915 45.3586 33.9135 45.2573 33.7089 45.201C33.608 45.1898 33.5161 45.2151 33.439 45.277C33.4064 45.3052 33.3856 45.3418 33.3827 45.384C33.3975 45.4656 33.436 45.536 33.4954 45.5979L34.6757 47.2641C34.735 47.3429 34.735 47.4217 34.6757 47.5005C34.5927 47.5624 34.5096 47.5624 34.4266 47.5005L32.9912 46.7434L32.8814 46.6955C32.8696 46.7209 32.8696 46.7462 32.8814 46.7715C32.9141 46.8672 32.9674 46.9516 33.0386 47.022L34.2042 48.3364C34.2813 48.4152 34.2813 48.4968 34.2042 48.5784C34.133 48.66 34.0499 48.6797 33.9491 48.6319C33.6318 48.4658 33.2996 48.342 32.9526 48.2604C32.9526 48.4715 33.2462 48.7079 33.3827 48.812L35.6396 50.5345C35.9095 50.7287 36.1497 50.9539 36.3573 51.21C36.5649 51.5393 36.7073 51.8939 36.7814 52.271C36.8585 52.5835 36.9238 52.8931 36.9949 53.2055C37.1551 54.0188 37.3657 54.821 37.6326 55.609C37.9974 56.7151 38.6617 57.6242 39.6285 58.3335C39.673 58.3616 39.7027 58.4038 39.7145 58.4545C39.7234 58.508 39.7145 58.5558 39.6819 58.598C39.6434 58.6543 39.587 58.6825 39.5158 58.6825Z" fill="#1F1F1F"/>
<path d="M26.244 64.9108C26.1847 64.908 26.1343 64.8827 26.0928 64.8405C26.0512 64.8039 26.0334 64.7588 26.0334 64.7054C26.0334 64.6519 26.0512 64.6069 26.0928 64.5675L26.9795 63.8554C30.4702 61.0268 33.78 58.3474 38.4718 57.4468C38.5994 57.4271 38.6794 57.4777 38.7091 57.5959C38.721 57.6494 38.7121 57.6973 38.6824 57.7423C38.6498 57.7873 38.6053 57.8155 38.5519 57.8239C33.9639 58.7133 30.8469 61.2295 27.2405 64.1509L26.3567 64.8658C26.3241 64.8911 26.2855 64.9052 26.244 64.9108Z" fill="#1F1F1F"/>
<mask id="mask0_1_1242" style="mask-type:luminance" maskUnits="userSpaceOnUse" x="38" y="56" width="39" height="25">
<path d="M38.7209 56.4988H77V80.9962H38.7209V56.4988Z" fill="white"/>
</mask>
<g mask="url(#mask0_1_1242)">
<path d="M68.6277 80.9318C68.5714 80.929 68.5209 80.9093 68.4824 80.8727C68.4409 80.8333 68.4231 80.7883 68.4231 80.7348C68.4231 80.6813 68.4409 80.6363 68.4824 80.5997C70.9825 78.2665 73.0052 75.604 74.5444 72.6093C75.962 70.1241 76.6056 67.4701 76.4751 64.6443C76.4425 63.9604 76.3268 63.2877 76.1192 62.6291C75.9116 61.9705 75.6239 61.3457 75.2562 60.7575C74.8855 60.1664 74.4465 59.6289 73.9364 59.142C73.4233 58.6579 72.8599 58.2385 72.24 57.8867C71.1308 57.3829 69.9623 57.1155 68.7315 57.0874C67.5037 57.0592 66.3233 57.2675 65.1874 57.7206C62.4856 58.7142 60.7714 60.4648 58.9534 62.3167C58.728 62.5447 58.5056 62.7783 58.2743 63.0063C50.9459 70.4028 43.2082 75.0467 39.6434 75.6687C39.5129 75.6856 39.4328 75.6321 39.4031 75.5083C39.3942 75.4548 39.4061 75.4069 39.4387 75.3647C39.4713 75.3225 39.5158 75.2972 39.5722 75.2887C43.0658 74.6724 50.7383 70.0763 57.9777 62.7727C58.209 62.5447 58.4344 62.3083 58.6568 62.0803C60.5075 60.2002 62.2543 58.4186 65.0362 57.3857C66.2284 56.9157 67.4681 56.6962 68.7552 56.7299C70.0424 56.7637 71.2672 57.0452 72.4298 57.5743C73.0793 57.9402 73.6725 58.3764 74.2063 58.8802C74.7401 59.3868 75.2028 59.9469 75.5913 60.5605C75.9798 61.174 76.2853 61.8242 76.5048 62.5109C76.7242 63.1977 76.8518 63.8985 76.8903 64.6162C77.0238 67.5095 76.3683 70.2283 74.9181 72.7782C73.3611 75.8122 71.3117 78.5113 68.7701 80.8727C68.7315 80.9121 68.6841 80.9318 68.6277 80.9318Z" fill="#1F1F1F"/>
</g>
<mask id="mask1_1_1242" style="mask-type:luminance" maskUnits="userSpaceOnUse" x="0" y="58" width="73" height="31">
<path d="M0 58.6599H72.8865V88.0827H0V58.6599Z" fill="white"/>
</mask>
<g mask="url(#mask1_1_1242)">
<path d="M60.4747 87.8491C58.6805 87.8378 56.9218 87.5845 55.2046 87.092C54.1666 86.7824 53.1552 86.4165 52.1647 85.9915C51.183 85.5609 50.1747 85.195 49.1426 84.8911C47.5173 84.5505 45.8802 84.483 44.2283 84.694L42.9916 84.7785C28.1272 85.5271 9.04848 84.4351 2.42891 74.8461C1.82093 73.9539 1.34047 73.0054 0.981616 71.9978C0.62276 70.9931 0.400327 69.9602 0.31432 68.8991C0.225347 67.838 0.278732 66.7854 0.465574 65.7384C0.655383 64.6914 0.97865 63.681 1.43241 62.71C1.74382 62.0008 2.17089 61.3619 2.71955 60.799C3.26822 60.2332 3.90289 59.7745 4.62357 59.4255C6.45641 58.6656 8.51464 59.206 10.478 59.8871C15.1372 61.5082 19.568 63.5712 23.7735 66.079C25.4462 67.0809 27.107 68.1729 28.7174 69.2199C30.9091 70.661 33.1838 72.147 35.5268 73.4276C46.6691 79.5576 59.2944 80.1261 70.4604 80.644C71.0447 80.6018 71.5637 80.7594 72.0145 81.114C72.2933 81.3729 72.4149 81.6854 72.3822 82.0541C72.2251 82.6986 71.8543 83.2052 71.2731 83.5711C70.8756 83.8441 70.4753 84.148 70.0927 84.4436C69.7101 84.7391 69.2326 85.1021 68.7848 85.4061C66.8659 86.6952 64.7395 87.4691 62.4054 87.7281C61.7648 87.8097 61.1213 87.8491 60.4747 87.8491ZM46.5327 84.2015C47.455 84.1846 48.3566 84.2916 49.2464 84.5196C50.2962 84.8263 51.3194 85.1978 52.3159 85.6341C53.2917 86.0506 54.2882 86.4081 55.3084 86.712C57.6217 87.3819 59.9824 87.5902 62.3906 87.334C64.6535 87.0723 66.7117 86.3152 68.5713 85.0571C69.0102 84.756 69.4462 84.4295 69.8614 84.103C70.2766 83.7765 70.6591 83.5035 71.0595 83.2221C71.5607 82.9434 71.8929 82.541 72.056 82.009C72.0797 81.7529 71.9937 81.5418 71.7921 81.3701C71.4154 81.0915 70.9913 80.9733 70.5168 81.0155C59.2944 80.5145 46.5327 79.9375 35.3192 73.816C32.9288 72.527 30.6867 71.0325 28.4861 69.5915C26.8905 68.5445 25.2237 67.4581 23.557 66.4589C19.3752 63.9681 14.9681 61.9163 10.3327 60.3064C8.45829 59.6535 6.48903 59.144 4.75109 59.8364C4.0838 60.1657 3.49658 60.5963 2.98943 61.1226C2.48229 61.6489 2.08191 62.24 1.79127 62.8986C1.3553 63.8386 1.04686 64.8153 0.865952 65.8285C0.68504 66.8417 0.637588 67.8605 0.720629 68.885C0.806636 69.9095 1.02314 70.9086 1.37013 71.8825C1.71712 72.8535 2.18571 73.7738 2.77293 74.635C9.25015 84.058 28.2132 85.1416 42.9679 84.3901L44.1986 84.3141C44.9401 84.255 45.7379 84.2015 46.5327 84.2015Z" fill="#1F1F1F"/>
</g>
<path d="M58.562 80.2418C58.4522 80.239 58.387 80.1884 58.3633 80.0898C58.3484 79.9857 58.3929 79.9182 58.4967 79.8844C65.5552 78.2154 69.909 72.7778 70.9944 70.7823C71.0211 70.7345 71.0597 70.7063 71.1131 70.6894C71.1664 70.6754 71.2169 70.681 71.2673 70.7063C71.3147 70.7288 71.3503 70.7654 71.3681 70.8161C71.3829 70.8667 71.38 70.9174 71.3533 70.9652C70.2441 72.9664 65.7717 78.5503 58.5946 80.2024L58.562 80.2418Z" fill="#1F1F1F"/>
<path d="M47.0281 84.5956C36.3484 84.3536 27.2732 82.0626 16.0923 78.4516C12.5511 77.3061 8.84097 75.9917 5.86039 73.7035C5.80404 73.6726 5.76845 73.6275 5.75658 73.5684C5.74176 73.5065 5.75658 73.453 5.79811 73.4052C5.83666 73.3574 5.89004 73.3348 5.95529 73.332C6.01757 73.3292 6.07095 73.3517 6.11544 73.3996C9.01892 75.6737 12.6787 76.9487 16.1872 78.0801C27.3532 81.6911 36.381 83.9652 47.0044 84.2072C47.0696 84.196 47.126 84.2101 47.1764 84.2495C47.2268 84.2889 47.2535 84.3395 47.2535 84.4014C47.2535 84.4634 47.2268 84.514 47.1764 84.5534C47.126 84.5928 47.0696 84.6069 47.0044 84.5956H47.0281Z" fill="#1F1F1F"/>
<path d="M36.6775 56.0564C36.4314 56.9908 36.0191 57.8549 35.4408 58.6429C36.4254 58.1588 37.4664 57.8211 38.5578 57.6353C37.6799 56.2478 37.3715 54.7758 36.7635 53.3123C36.811 54.2298 36.7813 55.1445 36.6775 56.0564Z" fill="#1F1F1F"/>
<path d="M47.8822 4.66382C51.9898 8.74484 54.1014 13.8109 53.3777 18.7813C53.0189 21.23 51.7822 23.4619 50.9844 25.812C50.1866 28.1649 49.9078 30.909 51.367 32.958C50.154 32.4739 48.9736 31.956 47.8021 31.3734C46.687 30.8752 45.5392 30.4502 44.3648 30.0984C43.8369 29.9324 43.3268 29.7241 42.8345 29.4764C42.1909 29.1218 41.6571 28.6518 41.2389 28.0664C41.7401 27.9735 49.4125 23.1494 49.4125 14.0023C49.4125 11.3004 48.4249 8.3874 45.9604 7.04488L47.8822 4.66382Z" fill="#1F1F1F"/>
<path d="M50.4269 32.5187L50.3053 32.4568C49.4986 33.1689 48.6474 33.8303 47.7547 34.4438C46.3668 35.3642 44.8958 36.1438 43.3447 36.7827C43.312 36.8221 43.312 36.8615 43.3447 36.9037C43.3447 36.9487 43.4247 36.9797 43.4544 36.9572C44.9729 36.2451 46.429 35.4317 47.817 34.5142C48.7394 33.9034 49.6232 33.2448 50.4654 32.5412L50.4269 32.5187Z" fill="#1F1F1F"/>
<path d="M47.5945 38.6323C47.6005 38.1735 47.5382 37.7204 47.4107 37.2757C47.3158 36.8282 47.0933 36.3413 47.2446 35.9641C47.0162 36.2062 46.7997 36.4595 46.598 36.7212C46.4023 37.0083 46.2422 37.2616 46.1206 37.4811C46.0168 37.65 45.9308 37.8273 45.8566 38.0103C45.7647 38.241 45.7409 38.4746 45.7854 38.7167C45.8655 39.1726 46.2866 40.5067 45.9367 40.9908C46.5031 40.6953 46.945 40.2787 47.2594 39.7412C47.3187 39.6258 47.3721 39.5104 47.4196 39.3922C47.5115 39.1473 47.5708 38.894 47.5945 38.6323Z" fill="#1F1F1F"/>
<path d="M42.4815 38.4521C42.0159 38.5984 41.5354 38.6463 41.0461 38.5956C40.5686 38.5337 40.0852 38.5196 39.6047 38.5506C40.0822 38.1988 40.533 37.8188 40.9512 37.4051C41.2537 37.149 41.5948 36.9604 41.9803 36.8422C42.1642 36.7887 42.354 36.7212 42.5468 36.6761C42.7366 36.6311 42.9294 36.5861 43.1281 36.5467L43.7034 36.4481L44.2699 36.3187C44.6139 36.1611 44.9757 36.0485 45.3524 35.9866C45.1062 36.1836 44.8601 36.3412 44.6347 36.5467C44.4033 36.7549 44.1868 36.9801 43.9911 37.2221C43.7805 37.4726 43.5581 37.709 43.3208 37.9342C43.0806 38.165 42.7989 38.3367 42.4815 38.4521Z" fill="#1F1F1F"/>
<path d="M49.6765 33.1718C49.4778 33.321 49.288 33.4814 49.1101 33.6559C48.9262 33.8304 48.7512 33.9965 48.5851 34.1879C48.4161 34.3765 48.2559 34.5735 48.1047 34.7789C47.9534 34.9844 47.8022 35.1898 47.6598 35.4094C47.3722 35.8709 47.1468 36.3579 46.9807 36.8729C46.8917 37.1375 46.779 37.388 46.6366 37.63C46.5032 37.8777 46.3223 38.086 46.0969 38.2605L46.0405 38.1929C46.26 38.0212 46.432 37.813 46.5595 37.5709C46.696 37.3289 46.8087 37.0756 46.8917 36.811C47.0459 36.2791 47.2684 35.7753 47.556 35.294C47.6984 35.066 47.8496 34.8634 48.0009 34.6579C48.1492 34.4496 48.3093 34.2498 48.4813 34.0584C48.6474 33.8698 48.8313 33.6953 49.0152 33.5208C49.1931 33.3463 49.38 33.1831 49.5816 33.0339L49.6765 33.1718Z" fill="#1F1F1F"/>
<path d="M50.4268 32.5191L50.323 32.4656C50.2578 32.5135 50.1896 32.5529 50.1154 32.5867C49.9108 32.6825 49.6943 32.7502 49.4689 32.7924L48.7897 32.9051C48.336 32.984 47.8763 33.0178 47.4107 33.0037C47.1793 33.0037 46.948 32.9671 46.7107 32.9446C46.26 32.891 45.8121 32.891 45.3613 32.9446L45.4325 33.1193C45.8714 33.0601 46.3104 33.0601 46.7493 33.1193C46.9717 33.1193 47.2209 33.1643 47.4522 33.1643C47.6865 33.1756 47.9178 33.1756 48.1521 33.1643H48.505L48.8461 33.1024C49.0715 33.0657 49.2939 33.0263 49.5253 32.9756C49.7507 32.9248 49.9701 32.8516 50.1777 32.753L50.4328 32.5952L50.4268 32.5191Z" fill="#1F1F1F"/>
<path d="M47.0606 32.7776C46.8441 32.6482 46.6454 32.4793 46.4467 32.3358C46.0345 31.998 45.5599 31.7785 45.0261 31.6772C44.6791 31.6603 44.3588 31.7447 44.0682 31.9277C43.7834 32.0909 43.478 32.2035 43.1517 32.2682C43.5225 32.423 43.8398 32.6482 44.1008 32.9437C44.3707 33.2505 44.691 33.5038 45.0587 33.7008C45.1981 33.7655 45.3434 33.7993 45.4976 33.7993C45.6341 33.8049 45.7675 33.788 45.8951 33.7486C46.1442 33.667 46.3874 33.5713 46.6217 33.4587C46.9093 33.3462 47.1792 33.2392 47.4669 33.1407C47.5796 33.0957 47.6271 33.0732 47.4669 32.9746C47.3068 32.8761 47.197 32.8508 47.0606 32.7776Z" fill="#1F1F1F"/>
<path d="M51.2157 33.5659C51.2958 33.8699 51.4233 34.171 51.5123 34.4834C51.6843 35.1673 51.6636 35.8485 51.456 36.5239C51.2306 37.1825 50.934 37.8102 50.5603 38.404C50.6344 38.0184 50.5573 37.6638 50.3319 37.3345C50.1184 37.0108 49.9375 36.6731 49.7892 36.3185C49.6795 35.9582 49.6795 35.5951 49.7892 35.2349C49.8989 34.9028 50.0532 34.5932 50.2519 34.3005L50.7145 33.6334C50.8717 33.4139 50.9992 33.1775 51.0971 32.927C51.1683 33.1353 51.2098 33.3464 51.2157 33.5659Z" fill="#1F1F1F"/>
<path d="M24.4913 24.9252C24.6395 25.5584 24.9658 26.096 25.464 26.5407C25.5678 26.6533 25.6954 26.7602 25.814 26.8756L26.1639 27.1993C26.4042 27.4076 26.6207 27.6327 26.8194 27.8748C26.7156 27.1177 26.6355 26.4281 26.5317 25.7442C26.4813 25.4093 26.4042 25.08 26.3004 24.7591C26.247 24.5987 26.1877 24.4411 26.1165 24.2891C26.0453 24.1371 25.9563 23.9908 25.8703 23.8388C25.7814 23.6896 25.4937 23.3406 25.3187 23.0817C25.2208 22.9522 25.1319 22.8171 25.0488 22.6792C24.9598 22.5385 24.8916 22.3893 24.8412 22.2317C24.8353 22.4512 24.8086 22.6679 24.7611 22.8847C24.7226 23.0957 24.6573 23.3181 24.601 23.5432C24.5446 23.7712 24.5061 23.9908 24.4735 24.2187C24.4408 24.4551 24.4468 24.6916 24.4913 24.9252Z" fill="#C49D9D"/>
<path d="M25.5441 25.0239C25.2713 24.2668 25.0666 23.4928 24.9272 22.7019L24.8798 22.3473C24.8027 21.669 24.7671 20.9935 24.7701 20.3124C24.7701 20.2364 24.7701 20.1548 24.7701 20.0788C24.7701 19.8508 24.7701 19.6313 24.8086 19.4033C24.8442 18.908 24.9095 18.4182 25.0014 17.9313C25.12 17.3346 25.2742 16.7436 25.464 16.1638L25.295 16.2708C25.1289 16.8083 24.9925 17.3544 24.8887 17.9088C24.8887 18.1058 24.8234 18.3113 24.7997 18.5139C24.7997 18.7053 24.7523 18.9023 24.7285 19.0909C24.7285 19.4934 24.6722 19.9043 24.6663 20.3039C24.6692 21.0132 24.7256 21.7196 24.8323 22.4204C24.8323 22.5133 24.8323 22.6034 24.8739 22.7019C25.0103 23.4956 25.2001 24.2752 25.4403 25.0464C25.4403 25.0464 25.4403 25.0464 25.5026 25.0464C25.5678 25.0464 25.5501 25.0464 25.5441 25.0239Z" fill="#C49D9D"/>
<path d="M25.7191 21.5789C25.8912 21.6915 26.078 21.7816 26.2767 21.8463C26.4754 21.9139 26.6919 21.9673 26.8906 22.0264C27.0893 22.0771 27.2851 22.1446 27.4719 22.2235C27.6439 22.291 27.7952 22.3895 27.9286 22.5133C27.9286 22.3923 27.8486 22.2769 27.8159 22.1559C27.7744 22.0349 27.7448 21.911 27.727 21.7844L27.6795 21.5958C27.6825 21.5395 27.6825 21.4832 27.6795 21.427C27.6499 21.3284 27.6143 21.2328 27.5698 21.1399C27.4897 20.9851 27.3889 20.8472 27.2643 20.7233C27.0804 20.5488 26.8639 20.4165 26.6207 20.3293C26.4131 20.2533 26.0128 20.1323 25.6302 19.9634C25.2476 19.7974 24.8976 19.5835 24.8324 19.3499C24.7464 19.772 24.7849 20.1829 24.9451 20.5826C25.1023 20.9851 25.3603 21.3172 25.7191 21.5789Z" fill="#C49D9D"/>
<path d="M22.608 21.019C22.5753 20.7995 22.5753 20.58 22.608 20.3576C22.6317 20.1353 22.7207 19.9411 22.8778 19.775C23.1121 19.578 23.3791 19.4373 23.6756 19.35C23.9663 19.2037 24.2302 19.0264 24.4734 18.8181C24.601 18.728 24.7048 18.638 24.7848 18.5761L24.9213 18.4775V18.4241C24.9213 18.4241 24.9213 18.5535 24.856 18.7196C24.8145 18.9335 24.7581 19.1418 24.6899 19.35C24.5861 19.8398 24.3696 20.2788 24.0434 20.67C23.821 20.8671 23.5422 21.05 23.3257 21.2695C23.1863 21.4131 23.0647 21.5735 22.9668 21.748L22.8304 22.021C22.8304 22.1195 22.7592 22.218 22.7266 22.3165V21.9366C22.7147 21.627 22.6762 21.3202 22.608 21.019Z" fill="#C49D9D"/>
<path d="M16.546 69.825C14.9504 69.0933 13.3044 68.4881 11.611 68.0041C9.91159 67.5087 8.18255 67.171 6.41793 66.988C5.979 66.988 5.54006 66.898 5.10113 66.8895L3.7784 66.8445H2.44678C2.23028 66.8445 2.00785 66.8445 1.78245 66.8445L1.12108 66.988L0.539795 67.0415C0.54276 67.0696 0.54276 67.0978 0.539795 67.1259V67.247L1.15371 67.185L1.80914 67.1316C2.02564 67.109 2.24214 67.095 2.46161 67.095H5.10113C5.54006 67.095 5.9701 67.1625 6.40903 67.1935C8.16476 67.3539 9.8938 67.6551 11.5932 68.0969C13.2837 68.5754 14.903 69.2171 16.4511 70.0221C16.5045 70.0361 16.546 70.0192 16.5697 69.9686C16.5934 69.9489 16.6023 69.9207 16.5964 69.8926C16.5905 69.8616 16.5756 69.8391 16.546 69.825Z" fill="#1F1F1F"/>
<path d="M15.2469 65.6374C14.8525 65.9132 14.5114 66.2369 14.2178 66.6084C13.8916 66.9574 13.6276 67.4218 13.2124 67.5428C13.5624 67.5428 14.0487 67.5428 14.3038 67.5428C14.8465 67.5259 15.3774 67.4527 15.8994 67.3233C16.1544 67.2585 16.3709 67.1319 16.5459 66.9433C16.881 66.6084 17.7352 65.4798 18.358 65.4713C17.8686 65.2687 17.3585 65.173 16.8247 65.1842C16.2553 65.1983 15.7303 65.3503 15.2469 65.6374Z" fill="#1F1F1F"/>
<path d="M18.4353 69.6733C18.8653 69.9407 19.2153 70.2785 19.4881 70.6894C19.7491 71.1059 20.0486 71.4887 20.3897 71.8433C19.7817 71.6998 19.1648 71.5985 18.5391 71.5394C18.1298 71.4549 17.7502 71.3058 17.4002 71.0862C17.0473 70.8751 16.7151 70.6387 16.4037 70.3798L15.9411 69.9998L15.4606 69.6508C15.1017 69.4791 14.7696 69.2709 14.4641 69.0232C15.1017 69.1977 15.7483 69.2934 16.4096 69.3103C16.7448 69.3103 17.1036 69.3103 17.4477 69.3863C17.7976 69.4144 18.1298 69.5129 18.4353 69.6733Z" fill="#1F1F1F"/>
<path d="M9.23242 67.4302C9.49637 67.4894 9.76033 67.5288 10.0302 67.5514C10.2942 67.5514 10.5581 67.6105 10.828 67.6275C11.0979 67.6415 11.3707 67.6275 11.6258 67.6275L12.4236 67.5796C13.0019 67.5119 13.5654 67.3823 14.1141 67.1935C14.6953 66.9597 15.3004 66.892 15.9232 66.9878V67.0724C15.6355 67.0132 15.3449 67.0132 15.0542 67.0724C14.7606 67.1203 14.4729 67.1907 14.1941 67.2837C13.6395 67.4809 13.0731 67.619 12.4859 67.6951C12.2219 67.7261 11.955 67.743 11.6881 67.7486C11.4093 67.7486 11.1394 67.7486 10.8903 67.7486C10.6441 67.7486 10.3505 67.7035 10.0955 67.6782C9.82557 67.6528 9.55866 67.6077 9.29767 67.5514L9.23242 67.4302Z" fill="#1F1F1F"/>
<path d="M7.79698 67.2019C8.03424 67.2216 8.26261 67.2751 8.48207 67.3595C8.70451 67.4524 8.91211 67.5706 9.10488 67.7085L9.67134 68.1335L9.9353 68.353L10.1992 68.5979C10.3653 68.764 10.5314 68.93 10.6856 69.1129C10.8369 69.2959 10.9703 69.4929 11.1068 69.6674C11.3618 70.0305 11.6643 70.3541 12.0173 70.6384L11.9135 70.796C11.5635 70.4977 11.258 70.1656 10.9941 69.7941C10.8606 69.6055 10.7331 69.4085 10.5818 69.234C10.4335 69.0567 10.2764 68.885 10.1103 68.7245C9.77811 68.4009 9.42519 68.0997 9.04853 67.8239C8.86466 67.6804 8.66595 67.5622 8.45242 67.4665C8.24185 67.3736 8.01941 67.3145 7.78809 67.292L7.79698 67.2019Z" fill="#1F1F1F"/>
<path d="M4.53468 66.9119C4.8016 66.9288 5.06555 66.9288 5.33247 66.9119C5.57863 66.9119 5.83665 66.9119 6.13026 66.8444C6.6463 66.7656 7.15344 66.653 7.65466 66.5095C8.17663 66.3547 8.68378 66.1661 9.17609 65.9409C9.70103 65.7242 10.2082 65.4709 10.6916 65.1838L10.7479 65.2964C10.2586 65.6004 9.74848 65.8678 9.21761 66.1014C9.09305 66.1605 8.96552 66.2139 8.83503 66.259C8.7075 66.3209 8.57701 66.3744 8.44355 66.4194C8.18849 66.5179 7.93344 66.608 7.64576 66.684C7.12379 66.8162 6.59292 66.9176 6.05908 66.9879C5.80402 67.0189 5.53711 67.0414 5.26129 67.0555C4.99437 67.0724 4.73042 67.0724 4.4635 67.0555L4.53468 66.9119Z" fill="#1F1F1F"/>
<path d="M2.66919 66.8982C3.11405 66.9348 3.49664 67.1037 3.81694 67.3992C4.13131 67.6975 4.42788 68.0155 4.7037 68.3477C5.20788 68.9528 5.82772 69.42 6.56026 69.7493V69.8337C5.80993 69.5129 5.17525 69.0513 4.65625 68.4462C4.37747 68.1253 4.08089 67.8185 3.76949 67.5286C3.45808 67.2528 3.09329 67.1037 2.66919 67.0811V66.8982Z" fill="#1F1F1F"/>
<path d="M10.6442 69.6364C10.6442 69.8785 10.6442 70.129 10.6442 70.3935C10.6353 70.917 10.7628 71.4067 11.0208 71.8655C11.2373 72.1413 11.5191 72.3327 11.8661 72.434C12.1893 72.5494 12.4889 72.7127 12.7588 72.9209C12.6431 72.5494 12.6253 72.1723 12.7024 71.7895C12.7795 71.3927 12.7795 70.9958 12.7024 70.599C12.6579 70.4583 12.5897 70.3288 12.4948 70.2134C12.4088 70.1064 12.305 70.0164 12.1923 69.9404C11.955 69.7997 11.7118 69.6758 11.4568 69.5689L10.659 69.1354C10.5582 69.0735 10.5018 69.051 10.5255 69.2339C10.5493 69.4169 10.6442 69.4929 10.6442 69.6364Z" fill="#1F1F1F"/>
<path d="M8.84095 65.8197C9.04856 65.5693 9.22354 65.2878 9.43114 65.0626C9.9027 64.4997 10.4929 64.0916 11.2017 63.8412C11.9135 63.5991 12.646 63.4387 13.3964 63.3542C13.0227 63.5316 12.7706 63.8046 12.6371 64.1817C12.5007 64.5392 12.3317 64.8825 12.127 65.2118C11.8927 65.5327 11.5843 65.7606 11.2017 65.8957C10.8488 66.0196 10.484 66.0928 10.1103 66.1153L9.24133 66.1913C8.94772 66.2081 8.66004 66.2588 8.3783 66.3432C8.45244 66.1237 8.71343 65.9802 8.84095 65.8197Z" fill="#1F1F1F"/>
<path d="M5.41247 69.0822C5.73277 69.4396 5.88403 69.9856 6.21026 70.3121C6.49201 70.571 6.8301 70.7089 7.22158 70.7202C7.5923 70.7089 7.95116 70.7624 8.29815 70.8806C8.13207 70.5767 7.98082 70.2502 7.83846 69.9237C7.74059 69.6451 7.5923 69.3918 7.39063 69.1666C7.07626 68.9246 6.72334 68.8598 6.33779 68.9752C5.97596 69.0765 5.61414 69.0765 5.25232 68.9752L5.41247 69.0822Z" fill="#1F1F1F"/>
<path d="M1.56006 66.9878C1.75876 66.9765 1.95747 66.9484 2.15024 66.9061C2.34599 66.8724 2.53876 66.8245 2.7256 66.7598C2.91838 66.6922 3.10225 66.6078 3.27427 66.5037C3.45814 66.3826 3.62719 66.2475 3.78438 66.1012C4.10468 65.8197 4.40719 65.4876 4.76604 65.1977C5.10414 64.8853 5.50748 64.6883 5.97014 64.6067V64.7502C5.52528 64.8234 5.13973 65.012 4.82239 65.3188C4.47837 65.6002 4.17586 65.9351 3.84073 66.2222C3.68058 66.3714 3.5056 66.5093 3.32172 66.6331C3.14081 66.7429 2.951 66.833 2.74933 66.9061C2.55655 66.9709 2.36081 67.0187 2.15914 67.0497C1.96044 67.0947 1.76173 67.1257 1.56006 67.1397V66.9878Z" fill="#1F1F1F"/>
<path d="M5.48371 65.3867C5.97603 65.5049 6.47428 65.5303 6.97549 65.4712C7.35214 65.367 7.6843 65.1869 7.97198 64.9336C8.27449 64.6662 8.5592 64.3819 8.82612 64.0836C8.62148 64.1906 8.40498 64.23 8.17069 64.1962C7.95122 64.1709 7.73769 64.123 7.52712 64.0611C7.1653 63.9795 6.80347 63.9457 6.43275 63.9541C6.05314 63.9513 5.69725 64.0414 5.36508 64.2187C4.71558 64.579 4.30927 65.1081 4.14319 65.8061C4.53763 65.5106 4.9825 65.3698 5.48371 65.3867Z" fill="#1F1F1F"/>
<mask id="mask2_1_1242" style="mask-type:luminance" maskUnits="userSpaceOnUse" x="25" y="0" width="16" height="14">
<path d="M25.814 0H40.9987V13.9881H25.814V0Z" fill="white"/>
</mask>
<g mask="url(#mask2_1_1242)">
<path d="M36.4285 0.279163L36.1023 0.538097L36.0222 0.614088C35.6959 0.65912 35.3638 0.681636 35.0346 0.681636C34.6965 0.695708 34.3821 0.785772 34.0915 0.946199C33.8008 1.11788 33.5369 1.32053 33.2937 1.55413C33.0475 1.81588 32.7391 1.95942 32.3684 1.98475C32.3209 1.99038 32.2972 2.01571 32.2972 2.06074C32.2824 2.08326 32.2824 2.10577 32.2913 2.1311C32.3001 2.15362 32.3209 2.1705 32.3446 2.17613C32.6649 2.2465 32.9912 2.28027 33.3174 2.28309C33.9017 2.31123 34.4592 2.20428 34.9871 1.96223C35.2303 1.82432 35.4379 1.64419 35.607 1.42466L36.1675 0.712595V0.650677C36.3395 0.501508 36.5204 0.363598 36.7073 0.234131L36.4285 0.279163ZM34.1715 1.63575C34.5719 1.49221 34.9693 1.34023 35.3519 1.18262C35.4972 1.12914 35.6337 1.06722 35.7671 0.991231C35.6396 1.1798 35.5032 1.35993 35.3519 1.53161C35.1087 1.78492 34.8092 1.95379 34.4592 2.03822C33.8631 2.18458 33.264 2.21272 32.656 2.12266C32.8992 2.04948 33.1098 1.92564 33.2877 1.75115C33.4153 1.64419 33.525 1.52317 33.6614 1.41059C33.7919 1.29801 33.9343 1.1995 34.0855 1.11225C34.3851 0.929312 34.7143 0.82799 35.0731 0.811103C35.3134 0.811103 35.5506 0.811103 35.7908 0.811103L35.6781 0.878651C35.521 0.974343 35.3519 1.05596 35.1769 1.1207L34.133 1.53161C34.0381 1.53724 34.0855 1.67515 34.1715 1.63575ZM40.7763 10.4057C40.7348 9.82594 40.5746 9.27711 40.2988 8.75924C40.1505 8.51438 39.9755 8.28641 39.7709 8.07814L39.5959 7.88112C39.4684 7.72351 39.3883 7.55183 39.3557 7.35763C39.3557 7.35763 39.3557 7.31259 39.3082 7.31259C39.0087 6.17554 38.8604 5.02159 38.8604 3.85076C38.896 3.21187 38.979 2.57579 39.1095 1.94816C39.1659 1.71737 39.2341 1.4894 39.3171 1.26424C39.3171 1.15166 39.4031 1.04471 39.4447 0.932126C39.4832 0.816732 39.5307 0.65912 39.587 0.628161L39.9874 0.40863H39.7472C39.6997 0.40863 39.5959 0.49025 39.5396 0.515581L39.2756 0.65912C38.4689 1.0813 37.6978 1.55694 36.9623 2.08326C36.8051 2.20709 36.645 2.36471 36.4611 2.4801C36.2772 2.59268 36.1497 2.6546 35.9985 2.75311L35.5595 3.03174C35.257 3.2175 34.9367 3.3723 34.6016 3.50176C34.0351 3.74662 33.4449 3.92112 32.831 4.02526L32.4188 4.08718C32.0659 4.05622 31.7189 3.99149 31.3808 3.89861C31.0901 3.83106 30.8054 3.74381 30.5266 3.63967L30.2241 3.51021C29.9483 3.25972 29.6488 3.03456 29.3314 2.83473L29.195 2.92761C29.3907 3.04019 29.5776 3.16684 29.7526 3.30475H29.6666C29.4501 3.20343 29.2247 3.12743 28.9874 3.07959L28.8361 3.19217H28.9637C29.2988 3.26535 29.6221 3.3723 29.9305 3.51865C29.6072 3.55242 29.2929 3.6256 28.9874 3.72974C28.6582 3.83669 28.3171 3.89016 27.9672 3.89861C27.9138 3.9352 27.8634 3.98023 27.8159 4.02526H28.0384C28.7798 4.02526 29.459 3.60308 30.2093 3.67063C30.3427 3.72974 30.4881 3.79166 30.6245 3.83669C31.0189 3.97178 31.4282 4.06748 31.8434 4.12377L30.9181 4.2476C30.6957 4.2476 30.4643 4.3236 30.2389 4.36863C29.7882 4.30389 29.3374 4.30389 28.8836 4.36863C28.1333 4.49247 27.5134 4.83583 27.027 5.39311C26.8194 5.65485 26.6622 5.93912 26.5466 6.24871C26.4487 6.54424 26.2767 6.79754 26.0365 7.00863C26.0038 7.01707 25.989 7.03959 25.989 7.07336C25.989 7.10432 26.0038 7.12684 26.0365 7.13809C26.0365 7.13809 26.1017 7.18875 26.1403 7.13809C26.4635 6.91012 26.8194 6.74969 27.2109 6.65963C27.549 6.57238 27.8782 6.4598 28.1985 6.31626C28.4951 6.20087 28.759 6.03763 28.9874 5.82372C29.367 5.35089 29.7941 4.92027 30.2656 4.52624C31.2384 4.30671 32.2497 4.27012 33.2225 4.07873C34.1626 3.88735 35.0346 3.54117 35.8383 3.04019C35.5773 3.27942 35.3282 3.53272 35.0969 3.8001C34.474 4.59097 33.9432 5.43532 33.5013 6.33315C33.4716 6.34441 33.4538 6.36974 33.4538 6.4007C33.1839 6.92419 32.92 7.44769 32.656 7.96274C32.3595 8.49187 32.0214 8.99848 31.6447 9.47976C31.3214 9.71054 30.9745 9.89349 30.5978 10.0342C29.9335 10.2509 29.3107 10.5493 28.7323 10.9292C28.4862 11.1431 28.2697 11.3824 28.0858 11.6497C27.9138 11.934 27.6765 12.1563 27.377 12.3168C27.3473 12.3308 27.3325 12.3534 27.3325 12.3871C27.3325 12.4181 27.3473 12.4406 27.377 12.4547C27.377 12.4997 27.4007 12.5222 27.4482 12.5138C27.8871 12.4688 28.3349 12.4237 28.7739 12.3393H28.8272C29.6043 12.2154 30.2716 11.8918 30.8291 11.3683C31.1672 11.0024 31.4104 10.5887 31.5646 10.1243C31.6269 9.97511 31.6773 9.81468 31.7307 9.6627C32.2052 9.0407 32.6205 8.3821 32.9763 7.68974L33.4064 6.86227C33.4064 7.21971 33.3352 7.56871 33.2877 7.91771C33.2877 8.01622 33.2877 8.11472 33.2877 8.21323C33.2373 8.59037 33.1691 8.9647 33.0801 9.33622C33.0623 9.34466 33.0475 9.35873 33.0386 9.37562C32.8874 9.67114 32.6768 9.92445 32.4099 10.1327C31.9591 10.5436 31.6536 11.0362 31.4935 11.6131C31.4134 11.9115 31.3748 12.2154 31.3808 12.5222C31.443 12.8093 31.4104 13.0879 31.2859 13.3581C31.2859 13.4172 31.3333 13.4848 31.3897 13.4482C31.7515 13.2512 32.1014 13.0317 32.4336 12.7868C32.9645 12.4153 33.3293 11.9312 33.525 11.3317C33.6021 11.0221 33.6021 10.7153 33.525 10.4057C33.439 10.0427 33.3174 9.68521 33.2225 9.33622C33.2225 9.24615 33.264 9.15328 33.2788 9.07165C33.35 8.71421 33.3975 8.36522 33.4479 8.00777C33.5102 7.51524 33.5576 7.0227 33.6051 6.49076C34.1152 5.39311 34.7766 4.37989 35.5832 3.45673C36.1853 2.8291 36.8526 2.27464 37.5851 1.78773C38.1575 1.40778 38.7477 1.05596 39.3557 0.735111C39.1333 1.23891 38.9642 1.75959 38.8545 2.29716C38.7744 2.70526 38.7269 3.11899 38.7092 3.53272C38.7092 3.6256 38.7092 3.72411 38.7092 3.82262L38.6142 4.57972C38.5193 5.42125 38.4393 6.27967 38.3028 7.12121C38.3028 7.16624 38.3028 7.21971 38.3028 7.27319C38.1842 7.52368 38.0152 7.7404 37.7927 7.91771C37.6029 8.08658 37.425 8.26671 37.2589 8.45528C37.0987 8.66355 36.9712 8.8859 36.8763 9.12513C36.8348 9.23771 36.8051 9.34466 36.7725 9.45724C36.7073 9.84846 36.5946 10.2228 36.4374 10.5887C36.4255 10.6196 36.4344 10.6478 36.4611 10.6703C36.4878 10.69 36.5175 10.6956 36.5501 10.6787C36.8645 10.5155 37.1729 10.3382 37.4665 10.1412C38.0033 9.84564 38.3533 9.41221 38.5193 8.84368C38.5401 8.70014 38.5401 8.5566 38.5193 8.41025C38.466 8.0331 38.466 7.65878 38.5193 7.28163C38.5342 7.26193 38.5342 7.23942 38.5193 7.21971C38.5994 6.76377 38.6469 6.31063 38.7032 5.85468L38.8219 4.81613C38.8219 5.13417 38.8782 5.45221 38.9346 5.77025C39.0295 6.39225 39.1659 7.00863 39.3171 7.61374C39.332 7.75728 39.332 7.89801 39.3171 8.03873C39.3171 8.15976 39.3171 8.27515 39.3171 8.40462C39.2904 8.68325 39.3082 8.95626 39.3735 9.22927C39.4447 9.49664 39.5544 9.74995 39.6997 9.98918C40.0171 10.4986 40.3937 10.9686 40.8326 11.3936C40.8326 11.4443 40.9513 11.3936 40.9513 11.3401C40.9097 11.0249 40.8534 10.7153 40.7763 10.4057ZM29.4501 5.09477C29.0764 5.60701 28.6018 6.00948 28.0235 6.30219C27.4956 6.52172 26.8995 6.60615 26.4279 6.87072C26.5317 6.69059 26.6089 6.4992 26.6682 6.30219C26.7809 5.99541 26.9351 5.71396 27.1368 5.45221C27.3651 5.1989 27.6291 4.99345 27.9346 4.83021C28.5307 4.53468 29.1624 4.41085 29.8326 4.45869C29.0971 4.65008 28.4684 5.01033 27.9523 5.54509C27.8871 5.61264 27.9998 5.71114 28.0621 5.6436C28.5099 5.19609 29.0408 4.88368 29.6577 4.70074L29.9305 4.61912C29.7585 4.75984 29.5983 4.91464 29.4501 5.0807V5.09477ZM31.2681 10.4817C31.2681 10.5493 31.2058 10.6196 31.1732 10.6872C30.8618 11.3289 30.3576 11.7792 29.6666 12.0381C29.4767 12.1198 29.278 12.1817 29.0764 12.2267C28.5811 12.3449 28.0769 12.4265 27.5698 12.4688C27.8159 12.2971 28.0206 12.086 28.1837 11.8411C28.3646 11.554 28.5929 11.3007 28.8599 11.0812C29.1446 10.8786 29.453 10.7181 29.7852 10.5971C30.3339 10.4029 30.8647 10.1749 31.3808 9.91319C30.8588 10.5465 30.2212 11.0531 29.4738 11.4302C29.3878 11.4752 29.4738 11.5906 29.5539 11.5512C29.7377 11.4668 29.9127 11.3711 30.0818 11.2641C30.5889 10.9349 31.0427 10.5436 31.4371 10.0961C31.3867 10.2228 31.3333 10.3466 31.2681 10.4676V10.4817ZM33.1039 9.84564C33.1276 10.0539 33.1276 10.265 33.1039 10.4733C33.0149 11.0108 32.8014 11.5006 32.4662 11.9396C32.309 12.131 32.137 12.314 31.9561 12.4856C32.1311 12.1957 32.2913 11.9002 32.4425 11.6047C32.7272 11.0334 32.9467 10.4423 33.1039 9.82875V9.84564ZM32.0599 10.7772C32.3061 10.4142 32.6976 10.1412 32.9674 9.80061C32.9052 10.0117 32.8399 10.2312 32.7598 10.4508C32.4395 11.2754 32.0421 12.0607 31.5646 12.8121C31.5646 12.7052 31.5646 12.5898 31.5646 12.4856C31.5379 11.8665 31.7011 11.2979 32.0599 10.7772ZM33.2551 9.89912C33.3174 10.1018 33.3738 10.3157 33.4212 10.5267C33.522 11.1403 33.356 11.6835 32.9289 12.1507C32.5285 12.5785 32.0659 12.9303 31.5409 13.2062C31.7011 12.9219 31.9027 12.6686 32.1459 12.4462C32.5048 12.1113 32.7776 11.7201 32.9704 11.2782C33.1632 10.8363 33.2581 10.3776 33.2551 9.89912ZM38.3028 8.87464C38.2346 9.14483 38.0982 9.37562 37.8876 9.57263C37.5051 9.9357 37.075 10.2397 36.5975 10.4817C36.6717 10.2847 36.731 10.0821 36.7725 9.8766C36.8111 9.7021 36.8526 9.5276 36.9 9.35873C36.9238 9.27711 36.9534 9.19549 36.989 9.11669C37.0928 8.86901 37.2352 8.64385 37.419 8.44121C37.6563 8.18227 37.9529 7.96274 38.1694 7.68411C38.0745 8.09784 37.9143 8.48624 37.6889 8.85212C37.6267 8.94219 37.5614 9.0407 37.4902 9.12513C37.419 9.20675 37.5377 9.29119 37.6029 9.22364C37.7334 9.0604 37.8491 8.8859 37.944 8.70014C38.0478 8.52283 38.1279 8.33707 38.1931 8.14568L38.2643 7.90364V8.09221C38.2702 8.2273 38.2702 8.35959 38.2643 8.49468C38.291 8.61852 38.3028 8.74517 38.3028 8.87464ZM40.1535 10.5887C39.7531 10.1468 39.4891 9.64018 39.3557 9.07165C39.3201 8.7705 39.3201 8.46935 39.3557 8.1682C39.4951 8.67481 39.6374 9.16735 39.7857 9.64863C39.7857 9.73025 39.9548 9.69366 39.931 9.60078C39.762 9.05477 39.5959 8.50313 39.4506 7.94867C39.5129 8.0331 39.5781 8.1091 39.6523 8.18227C39.851 8.39336 40.026 8.62133 40.1772 8.8662C40.3107 9.12794 40.4145 9.39814 40.4886 9.67677C40.6043 10.1778 40.6577 10.6844 40.6488 11.1938C40.4738 11.0137 40.2899 10.8082 40.1535 10.5887Z" fill="#C49D9D"/>
</g>
<path d="M29.1327 43.4726C28.7708 43.3854 28.4565 43.2165 28.1895 42.9717C27.9493 42.7437 27.6854 42.5467 27.3918 42.3806C26.6889 42.1161 25.9623 41.9584 25.209 41.9022C24.7819 41.8459 24.3696 41.7389 23.9722 41.5841H23.9307C23.4058 41.1648 22.9164 40.7116 22.4627 40.2247C22.0326 39.7631 21.6115 39.2762 21.1963 38.8006C21.1844 38.7696 21.1637 38.7527 21.131 38.7471L20.6862 38.2546C21.2467 38.5839 21.8517 38.8175 22.4953 38.9582L24.0345 39.5042C24.5506 39.6506 25.0399 39.8504 25.5026 40.1121C25.4966 40.1403 25.4966 40.1684 25.5026 40.1938C25.4966 40.2247 25.4966 40.2557 25.5026 40.2866V40.3401C25.5322 40.3683 25.5678 40.3908 25.6064 40.4077H25.6627C25.7042 40.4189 25.7487 40.4189 25.7902 40.4077C25.8199 40.3964 25.8466 40.3739 25.8614 40.3457C25.8881 40.3289 25.9059 40.3063 25.9178 40.2782C25.9267 40.2472 25.9267 40.2191 25.9178 40.1881C25.9267 40.16 25.9267 40.1318 25.9178 40.1037V40.0502C25.8911 40.0193 25.8614 39.9967 25.8229 39.9827H25.639C25.1763 39.7153 24.684 39.507 24.162 39.3607L23.3643 39.0792C23.6964 39.1186 24.0286 39.1383 24.3637 39.1411C24.77 39.1411 25.1585 39.1411 25.5826 39.0792C25.6746 39.1721 25.7784 39.1805 25.8881 39.1102C25.9978 39.0398 26.0275 38.9469 25.9741 38.8287C25.9118 38.7246 25.8199 38.688 25.6953 38.719C25.5737 38.7471 25.5115 38.8231 25.5115 38.9441C24.6128 39.0342 23.7201 39.006 22.8304 38.8597C23.0647 38.8512 23.2931 38.8175 23.5155 38.7612C24.0671 38.6205 24.5595 38.3756 25.0014 38.0322C25.0992 38.1054 25.2001 38.1026 25.295 38.0266C25.3928 37.9506 25.4136 37.8605 25.3602 37.7536C25.3335 37.7001 25.292 37.6607 25.2327 37.6382C25.1763 37.6157 25.117 37.6157 25.0577 37.6354C25.0014 37.6579 24.9569 37.6945 24.9302 37.748C24.9005 37.7986 24.8946 37.8549 24.9124 37.9112C24.4823 38.2349 23.996 38.4544 23.4621 38.5726C22.7355 38.764 22.0267 38.7133 21.3386 38.4206C20.2947 37.9787 19.6096 37.1231 18.7317 36.4561C18.4174 36.2197 18.0882 36.0058 17.7412 35.8116C18.7139 36.1381 19.7134 36.2872 20.7425 36.2591C21.3624 36.2591 21.9763 36.1521 22.5932 36.0902C22.9016 36.0902 23.213 36.0311 23.5155 36.0142C24.3637 35.9692 24.9776 36.6447 25.6301 37.0387C25.9267 37.2188 26.2499 37.3399 26.594 37.4046C26.9647 37.4693 27.3354 37.5059 27.7121 37.5087C27.9464 37.52 28.1777 37.5453 28.406 37.5847H28.6611C28.6611 37.5847 28.9725 37.5847 28.9547 37.5847C28.928 37.5425 28.8954 37.5003 28.8598 37.4637C28.6611 37.2667 28.4802 37.0584 28.3171 36.8332C28.1154 36.5462 27.8692 36.2929 27.5845 36.0761C26.9172 35.623 26.1758 35.4288 25.3602 35.4992C24.8709 35.5358 24.4023 35.6371 23.9485 35.8116C23.6935 35.8116 23.4532 35.8116 23.2071 35.8482C22.9579 35.8876 22.5427 35.9101 22.2165 35.9467C22.6317 35.7947 23.0291 35.6061 23.4058 35.3782C23.5867 35.2262 23.7943 35.1192 24.0286 35.0517C24.2658 35.0095 24.5031 34.9898 24.7463 34.9926C25.2238 35.0376 25.6983 35.0207 26.1728 34.9447C26.8638 34.7196 27.4659 34.3537 27.976 33.8527C28.1154 33.726 28.2667 33.6078 28.4209 33.4981C28.5009 33.4418 28.581 33.3939 28.67 33.3517C28.7263 33.3517 28.8687 33.2926 28.8776 33.2166C28.8746 33.1857 28.8628 33.1631 28.8361 33.1491C28.7886 33.1012 28.6522 33.1491 28.581 33.1491L28.2874 33.1097L27.721 32.9971C27.3206 32.9239 26.9232 32.9239 26.5228 32.9971C25.7458 33.1237 25.0785 33.4559 24.5209 33.9906C24.34 34.1735 24.168 34.3677 24.0108 34.5732C23.9485 34.6576 23.907 34.7646 23.8358 34.8406C23.732 34.9503 23.6163 35.046 23.4859 35.1277C23.2308 35.305 22.9668 35.4654 22.6881 35.6061C22.3589 35.7694 22.0208 35.9045 21.6678 36.0086C21.653 36.0058 21.6411 36.0058 21.6263 36.0086H21.1815C20.5112 36.0536 19.8469 36.0283 19.1855 35.9326C18.9482 35.8876 18.6991 35.8397 18.4619 35.7806C18.2216 35.7187 17.0413 35.3472 16.9286 35.3022L16.6587 35.1586L16.3235 35.1277L15.8846 34.9532C16.6824 35.0292 17.5276 34.8321 18.3492 34.8321C18.361 34.8631 18.3818 34.8856 18.4114 34.8997C18.4322 34.9222 18.4559 34.9391 18.4856 34.9447C18.5152 34.9532 18.5479 34.9532 18.5805 34.9447C18.6101 34.9532 18.6398 34.9532 18.6665 34.9447H18.7228C18.7584 34.9194 18.7822 34.8856 18.794 34.8462V34.7927C18.8029 34.7533 18.8029 34.7139 18.794 34.6717C18.7851 34.6436 18.7644 34.6211 18.7406 34.6042C18.7169 34.5817 18.6902 34.5676 18.6606 34.5591C18.6309 34.5507 18.6012 34.5507 18.5716 34.5591H18.4203C18.3877 34.5845 18.367 34.6182 18.3581 34.6576C17.8153 34.6576 17.2726 34.7561 16.7625 34.7871C16.893 34.7364 17.0146 34.6689 17.1273 34.5901C17.3527 34.4128 17.5929 34.2608 17.845 34.1257H18.0763C18.1089 34.1004 18.1297 34.0666 18.1416 34.0272V33.9737C18.1534 33.9343 18.1534 33.8949 18.1416 33.8527C18.1297 33.8246 18.106 33.802 18.0763 33.7851C18.0585 33.7626 18.0348 33.7486 18.0051 33.7401C17.9725 33.7317 17.9428 33.7317 17.9102 33.7401C17.8806 33.7317 17.8509 33.7317 17.8213 33.7401H17.7679C17.7323 33.7654 17.7086 33.7992 17.6937 33.8386V33.8921C17.6878 33.9315 17.6878 33.9709 17.6937 34.0131C17.4802 34.1341 17.2785 34.2692 17.0887 34.4212C16.9404 34.5282 16.7803 34.6126 16.6112 34.6802C16.4748 34.7336 16.3324 34.7702 16.1871 34.7871C16.027 34.7871 15.8698 34.7871 15.7096 34.7871C15.6562 34.7899 15.6029 34.7899 15.5495 34.7871C15.2232 34.7111 14.9118 34.5901 14.5856 34.4831C14.2564 34.3762 13.9391 34.2777 13.6099 34.1876L13.2836 34.1116L12.91 34.0047C12.1922 33.8217 11.4656 33.6866 10.7331 33.5741L9.8315 33.4671C10.1014 33.4362 10.3653 33.3883 10.6293 33.3236C11.2907 33.135 11.9016 32.8423 12.4562 32.4511C12.7913 32.2287 13.1176 32.0261 13.4675 31.8347C14.123 31.6771 14.7754 31.6771 15.4308 31.8347C15.7719 31.9248 16.0952 32.0542 16.4036 32.2231C16.7091 32.4117 16.9938 32.6199 17.2637 32.8507C17.498 33.0477 17.7619 33.1885 18.0615 33.2701C18.6754 33.3911 19.2804 33.3658 19.8795 33.1941C20.2354 33.1209 20.5586 32.9802 20.8523 32.7776C20.8523 32.7776 20.8938 32.7776 20.8523 32.7241C20.7751 32.7044 20.698 32.7044 20.6209 32.7241C20.2858 32.7156 19.9744 32.6256 19.6897 32.4567C19.3812 32.2709 19.055 32.1274 18.708 32.0261C18.3581 31.9276 18.0051 31.9079 17.6463 31.9726C17.3675 32.0176 17.0887 32.1021 16.8099 32.1302C16.5786 32.1274 16.368 32.0599 16.1782 31.9332C15.9588 31.8375 15.7334 31.7531 15.502 31.6827C15.1521 31.5927 14.7962 31.5476 14.4314 31.5476C14.2564 31.5364 14.0814 31.5364 13.9064 31.5476L14.2179 31.4097C14.5441 31.2774 14.8792 31.1649 15.2232 31.0776C15.3597 31.0241 15.505 30.9932 15.6533 30.9847C15.8253 30.9847 15.9943 31.0016 16.1634 31.0382C16.2405 31.0635 16.3146 31.0945 16.3858 31.1311L16.6824 31.2577C16.9701 31.3703 17.2726 31.4238 17.584 31.4182C18.2216 31.4013 18.8355 31.2662 19.4168 31.0157C19.7549 30.8778 20.0782 30.7173 20.3896 30.5316C20.4222 30.5119 20.4459 30.4866 20.4637 30.4556C20.4578 30.4134 20.437 30.388 20.3985 30.3712C20.3095 30.3712 20.2146 30.3712 20.1286 30.3261C20.0218 30.2895 19.921 30.2417 19.8231 30.1826L19.3545 29.9856C19.0461 29.8646 18.7288 29.7998 18.3966 29.7942C17.5306 29.8251 16.7476 30.0841 16.0507 30.5766C15.9706 30.6301 15.8994 30.6976 15.8194 30.7596C15.7452 30.7962 15.6651 30.8215 15.5821 30.8271L15.2232 30.9087C14.983 30.9706 14.7458 31.041 14.5115 31.1226C14.2683 31.2099 14.028 31.3084 13.7938 31.4182C13.4319 31.5898 13.0849 31.784 12.7498 32.0036C12.1774 32.4229 11.5546 32.7579 10.8843 33.0112C10.4454 33.1547 9.99165 33.2391 9.52899 33.2617L9.46374 33.3602C9.46374 33.4136 9.40739 33.4587 9.38367 33.5037L9.79887 33.5487L10.3505 33.6191C11.0415 33.9062 11.5576 34.3677 11.9046 35.0066C11.9313 35.2121 11.9313 35.4147 11.9046 35.6202C11.9046 35.8341 11.8393 36.0452 11.8245 36.2591C11.8067 36.6588 11.8749 37.0472 12.0321 37.4187C11.9728 37.4947 11.9728 37.5706 12.0321 37.6466C12.0588 37.7029 12.1033 37.7451 12.1655 37.7648C12.2278 37.7874 12.2901 37.7874 12.3524 37.7592C12.4117 37.7339 12.4532 37.6917 12.477 37.6326C12.5007 37.5735 12.4977 37.5144 12.471 37.4581C12.4058 37.3933 12.3287 37.3764 12.2397 37.4046C12.0914 37.0274 12.0351 36.6362 12.0647 36.2366C12.1033 36.0367 12.13 35.8369 12.1448 35.6371V35.4147C12.3435 35.8116 12.5096 36.2281 12.6697 36.6222H12.6134C12.5808 36.6447 12.557 36.6756 12.5422 36.7122V36.7741C12.5363 36.8107 12.5363 36.8501 12.5422 36.8867C12.557 36.9177 12.5778 36.943 12.6074 36.9627L12.6786 37.0077C12.7112 37.0162 12.7409 37.0162 12.7735 37.0077C12.8032 37.0218 12.8328 37.0218 12.8625 37.0077H12.9189C12.9515 36.9852 12.9752 36.9543 12.99 36.9177V36.8586C12.996 36.8192 12.996 36.7826 12.99 36.7432C12.9782 36.715 12.9574 36.6925 12.9337 36.6756L12.8536 36.6222C12.7053 36.2141 12.5303 35.8144 12.3346 35.4232C12.8566 35.9129 13.2065 36.4927 13.3874 37.1682C13.337 37.1963 13.3074 37.2357 13.2896 37.2892C13.2747 37.3427 13.2807 37.3933 13.3074 37.4412C13.3845 37.5538 13.4853 37.5819 13.6099 37.5256C13.7374 37.4693 13.7819 37.3793 13.7404 37.2526C13.7048 37.1625 13.6395 37.1203 13.5387 37.1231C13.3133 36.2957 12.8536 35.6061 12.1596 35.0601C12.1537 35.0404 12.1389 35.0235 12.1211 35.0151C11.8304 34.5028 11.4241 34.0891 10.9081 33.7767C11.5546 33.8752 12.1922 33.9962 12.821 34.1482L13.3163 34.2777C13.3815 34.2777 13.4912 34.4916 13.5328 34.5451L13.7641 34.8631C13.9094 35.0742 14.0399 35.2909 14.1615 35.5161C14.3394 35.8341 14.4937 36.1634 14.6331 36.5011C14.6746 36.6362 14.7102 36.7713 14.7369 36.9092C14.7932 37.0978 14.8614 37.2779 14.9445 37.4581C15.2588 38.6739 15.4131 39.9123 15.4071 41.1648C15.3923 41.1845 15.3923 41.2013 15.4071 41.2182C15.3953 41.5306 15.3063 41.8177 15.1343 42.0851C14.9801 42.3497 14.8585 42.6283 14.7665 42.9182C14.6034 43.4952 14.5589 44.0778 14.6331 44.6716C14.6835 45.0347 14.7547 45.3921 14.8466 45.7468C14.8466 45.8002 14.9593 45.8312 14.9919 45.7468C15.33 45.2008 15.594 44.6238 15.7897 44.0187C15.8727 43.7175 15.9143 43.4107 15.9172 43.1011C15.9024 42.8028 15.849 42.5101 15.7482 42.2286C15.6414 41.9641 15.5584 41.6939 15.502 41.4153C15.5139 40.7426 15.4902 40.0699 15.4308 39.3973C15.4308 39.0651 15.3508 38.7246 15.2855 38.3812L15.6918 39.4282C15.8698 39.8926 16.0448 40.3542 16.2435 40.8101C16.2316 40.8298 16.2316 40.8495 16.2435 40.8692C16.4985 41.3787 16.4095 41.9866 16.6409 42.5016C16.9671 43.0533 17.4476 43.4192 18.0852 43.6021C18.447 43.7316 18.8118 43.8442 19.1855 43.9342C19.2241 43.9483 19.2567 43.9399 19.2804 43.9061C19.3041 43.8751 19.3012 43.8442 19.2745 43.8132C18.9601 43.3573 18.6754 42.8844 18.4203 42.3947C18.2543 42.1695 18.0526 41.9725 17.8213 41.8037C17.5988 41.6376 17.3616 41.4941 17.1124 41.3702C16.8426 41.2351 16.6112 41.0522 16.4184 40.8242C16.4184 40.7707 16.371 40.7173 16.3562 40.6722C15.9795 39.8307 15.6681 38.9582 15.3419 38.1026C15.2381 37.8521 15.1432 37.5932 15.0394 37.3427C15.0394 37.2132 14.9682 37.0837 14.9267 36.9627C15.2796 37.3511 15.6978 37.6551 16.1782 37.8802C16.976 38.4347 17.3527 39.3973 18.0852 40.0361C18.0407 40.1037 18.0407 40.1712 18.0852 40.2416C18.1593 40.3542 18.2602 40.3823 18.3877 40.326C18.5152 40.2698 18.5597 40.1769 18.5152 40.0502C18.4915 39.9939 18.45 39.9545 18.3907 39.932C18.3314 39.9095 18.272 39.9123 18.2127 39.9376C17.6789 39.3719 17.1806 38.7781 16.715 38.1617C17.2103 38.3643 17.6789 38.6176 18.1178 38.9216V38.9807C18.1089 39.0201 18.1089 39.0567 18.1178 39.0961C18.1297 39.1243 18.1475 39.1496 18.1742 39.1721C18.1949 39.1946 18.2216 39.2087 18.2543 39.2171C18.2809 39.2256 18.3106 39.2256 18.3403 39.2171C18.3729 39.2228 18.4055 39.2228 18.4352 39.2171H18.4915C18.5241 39.189 18.5449 39.158 18.5568 39.1186V39.0651C18.5716 39.0257 18.5716 38.9835 18.5568 38.9441C18.5419 38.9132 18.5212 38.8906 18.4915 38.8766C18.4708 38.8541 18.447 38.8344 18.4203 38.8231C18.3877 38.8147 18.3581 38.8147 18.3254 38.8231C18.2987 38.8147 18.272 38.8147 18.2454 38.8231C17.8272 38.5219 17.3823 38.2686 16.9048 38.0632H17.0235C17.2548 38.0688 17.4832 38.0885 17.7115 38.1251C18.1356 38.1983 18.539 38.339 18.9156 38.5416C18.9008 38.5895 18.9008 38.6373 18.9156 38.6852C18.9423 38.7443 18.9868 38.7837 19.0491 38.8062C19.1114 38.8287 19.1736 38.8259 19.233 38.8006C19.2952 38.7724 19.3368 38.7302 19.3605 38.6711C19.3842 38.612 19.3812 38.5529 19.3545 38.4966C19.3219 38.4263 19.2685 38.384 19.1914 38.37C19.1143 38.3531 19.0461 38.37 18.9868 38.4206C18.622 38.2264 18.2335 38.0885 17.8213 38.0097C17.5988 37.9675 17.3734 37.9393 17.1451 37.9281C16.9167 37.9393 16.7002 37.9028 16.4896 37.8127C16.457 37.7845 16.4214 37.7845 16.3858 37.8127L16.2435 37.7367C15.8134 37.5594 15.4368 37.3061 15.1194 36.9796C14.8674 36.6025 14.6449 36.2141 14.4492 35.8116C14.1971 35.2712 13.8827 34.7646 13.509 34.2946C14.2238 34.4916 14.9237 34.7224 15.6118 34.9926C16.5045 35.3219 17.3497 35.7356 18.1505 36.2366C18.7258 36.6222 19.2567 37.0556 19.7431 37.5397C19.9922 37.7817 20.2324 38.0322 20.4697 38.2996C20.6091 38.4319 20.7307 38.5754 20.8374 38.7302C20.9501 38.8906 21.0539 39.0539 21.1488 39.2256C21.2289 39.3832 21.2526 39.5661 21.3149 39.7322C21.5314 40.3176 21.7716 40.9002 22.0415 41.4687C22.0801 41.5616 22.1305 41.6517 22.1691 41.7361C22.1691 42.1301 22.1305 42.4932 22.1691 42.9266C22.1691 43.2644 22.2521 43.5824 22.4152 43.8808C22.78 44.4605 23.2901 44.8771 23.9485 45.1332C24.3607 45.3077 24.7819 45.4541 25.2149 45.5723C25.2801 45.5723 25.3602 45.5047 25.295 45.4456C25.0963 45.1951 24.9865 44.9165 24.9687 44.6013C24.9065 44.2889 24.7937 43.9933 24.6336 43.7147C24.3133 43.1546 23.8655 42.7155 23.2842 42.3947C22.9402 42.2343 22.6495 42.0119 22.4093 41.7277C22.1691 41.2661 21.9615 40.7932 21.7716 40.3176C21.6263 39.9602 21.4988 39.6027 21.3624 39.2396L22.0326 39.9967C22.6139 40.661 23.2516 41.2661 23.9485 41.8177C24.2866 42.4397 24.7522 42.9576 25.3424 43.3741C26.0661 43.7822 26.849 43.9567 27.6883 43.8976C28.1866 43.8751 28.6848 43.8273 29.1801 43.7541C29.2305 43.7485 29.2483 43.7231 29.2365 43.6781C29.3076 43.6443 29.3254 43.5937 29.2898 43.5261C29.2572 43.4558 29.2038 43.4389 29.1327 43.4726ZM24.6425 36.0002C25.0666 36.1296 25.4729 36.3041 25.8525 36.5237C26.1105 36.67 26.3775 36.7995 26.6503 36.9092C26.9439 37.0134 27.2435 37.0894 27.5519 37.1372C27.8337 37.1879 28.1006 37.2836 28.3497 37.4187C27.8307 37.3286 27.2731 37.3652 26.7541 37.2836C26.0957 37.1091 25.5085 36.8051 25.0014 36.3717C24.8056 36.2338 24.601 36.1099 24.3874 36.0002H24.6425ZM25.4403 33.4727C25.7695 33.2814 26.1224 33.1434 26.4991 33.0646C26.9024 32.983 27.3087 32.983 27.7121 33.0646L28.3912 33.1941C28.0591 33.2617 27.7239 33.3067 27.3858 33.3292C26.9854 33.3827 26.588 33.4587 26.1966 33.5572C25.5026 33.7345 24.8679 34.03 24.2985 34.4437C24.6158 34.0694 24.9865 33.7486 25.4136 33.4896L25.4403 33.4727ZM17.6552 32.0936C18.0318 32.0205 18.3996 32.043 18.7644 32.1612C18.9453 32.2175 19.1203 32.2878 19.2893 32.3751C19.4584 32.4511 19.6096 32.5496 19.7698 32.6312C19.8765 32.6847 19.9863 32.7269 20.1019 32.7607C19.6393 32.7044 19.1914 32.5974 18.7555 32.4342C18.2335 32.2935 17.7026 32.209 17.1599 32.1837C17.3438 32.1696 17.495 32.1302 17.6552 32.0936ZM17.3823 30.0982C17.6759 30.0025 17.9755 29.9518 18.2839 29.9377C18.625 29.9293 18.9512 29.9856 19.2656 30.1122L19.752 30.3177L19.9269 30.4106C19.8024 30.4246 19.6778 30.4246 19.5533 30.4106C19.3931 30.3965 19.2359 30.3712 19.0817 30.3346C18.7258 30.267 18.367 30.2248 18.0051 30.2135C17.4327 30.2248 16.8841 30.3346 16.3562 30.5457C16.6765 30.3571 17.0205 30.2107 17.3823 30.1122V30.0982ZM15.2055 42.6367C15.1432 42.9576 15.0868 43.2756 15.0394 43.6021C14.9919 43.9286 14.9593 44.2523 14.9356 44.5872C14.9118 44.9221 14.9356 45.0347 14.9356 45.2627C14.8169 44.7926 14.7517 44.3198 14.7428 43.8357C14.7428 43.5289 14.7784 43.225 14.8466 42.9266C14.9326 42.6283 15.0572 42.3469 15.2143 42.0767C15.2707 41.9782 15.327 41.8712 15.3745 41.7642C15.3448 42.0598 15.2915 42.3525 15.2055 42.6367ZM16.7061 41.7051C16.8188 41.874 16.9404 42.0344 17.0739 42.1892C17.2162 42.375 17.3764 42.5467 17.5514 42.7071C17.7619 42.9097 17.9873 43.0927 18.2305 43.2587C18.3581 43.3432 18.4767 43.4276 18.6131 43.5036C18.7258 43.5655 18.8296 43.6359 18.9304 43.7147C18.3877 43.5824 17.8776 43.377 17.4001 43.1011C17.1302 42.9492 16.9256 42.7437 16.7862 42.4791C16.6854 42.2343 16.6231 41.981 16.5934 41.7192C16.5994 41.6517 16.5994 41.5841 16.5934 41.5138L16.7061 41.7051ZM22.2877 42.3046C22.4152 42.8169 22.6465 43.2869 22.9787 43.7091C23.3109 44.1312 23.7201 44.4718 24.2036 44.7307C24.4972 44.8968 24.7641 45.0966 25.0014 45.3302C24.3756 45.1754 23.8002 44.9221 23.2694 44.5731C22.697 44.1932 22.3796 43.6697 22.3203 43.0083C22.2877 42.7747 22.2966 42.5382 22.3055 42.3046H22.2877Z" fill="#1F1F1F"/>
<path d="M72.2458 58.964L72.1687 58.9105C72.4297 58.6065 72.7204 58.3279 73.0377 58.0746L72.8538 57.9705C72.5335 58.2294 72.2429 58.5165 71.976 58.8261C71.7684 58.7557 71.5608 58.7557 71.3531 58.8261C71.3235 58.8148 71.2938 58.8148 71.2671 58.8261C70.6236 59.1582 70.2262 59.6648 70.069 60.3431C69.9237 61.1171 69.9859 61.877 70.2529 62.62C70.2529 62.696 70.4041 62.741 70.4516 62.62C70.9024 61.9502 71.4362 61.345 72.0471 60.8075C72.4623 60.36 72.9487 59.4621 72.2458 58.964Z" fill="#1F1F1F"/>
<path d="M70.7393 58.409C70.7601 58.395 70.772 58.3781 70.7809 58.3556C71.0122 58.2655 71.2494 58.1726 71.4897 58.0966C71.7299 58.0206 72.1421 57.8855 72.4773 57.7955L72.1688 57.666L71.9612 57.7251C70.6296 58.1389 69.3692 58.6961 68.1799 59.4026C68.1799 59.4026 68.1235 59.3491 68.0672 59.4026C67.6105 59.5405 67.1419 59.6165 66.6644 59.6305C66.3382 59.5039 66.0238 59.3519 65.7242 59.1746C65.4633 59.0113 65.1815 58.9044 64.879 58.8481C64.2592 58.7777 63.6957 58.9128 63.1856 59.2506C63.1559 59.2703 63.1411 59.2984 63.1381 59.335C63.1233 59.3603 63.1203 59.3885 63.1322 59.4194C63.147 59.4476 63.1707 59.4645 63.2033 59.4701C63.5148 59.5827 63.7787 59.7572 64.0011 59.9936C64.2443 60.2131 64.532 60.3595 64.8612 60.427C65.1815 60.4805 65.487 60.4383 65.7776 60.2976C66.1157 60.1428 66.442 59.9655 66.7534 59.7656C67.0855 59.7516 67.4147 59.7065 67.741 59.6362L67.4711 59.8107C66.7919 60.2694 66.1572 60.776 65.5641 61.3305L65.0688 61.505L64.8049 61.6035C64.7544 61.6204 64.7011 61.6373 64.6477 61.6485C64.4935 61.626 64.3481 61.5782 64.2147 61.505C64.0871 61.429 63.9833 61.3305 63.8558 61.2545C63.6215 61.1335 63.3724 61.0884 63.1084 61.1166C62.5449 61.2292 62.0675 61.4797 61.673 61.8765C61.6315 61.9046 61.6196 61.9441 61.6345 61.9919C61.6493 62.0369 61.6849 62.0623 61.7353 62.0651C62.0022 62.1467 62.2454 62.2733 62.4619 62.445C62.6873 62.5717 62.9335 62.6223 63.1944 62.597C63.4495 62.5604 63.6808 62.4732 63.8884 62.3296L64.6862 61.8765C64.7455 61.8681 64.8049 61.8512 64.8612 61.8287L65.1578 61.7245H65.2052C64.615 62.2874 64.0634 62.8813 63.5444 63.5061L63.4109 63.6722C63.3872 63.6665 63.3635 63.6665 63.3398 63.6722C63.0313 63.8832 62.7021 64.0634 62.3581 64.2125C61.9488 64.1394 61.5751 63.9846 61.24 63.7481C60.9138 63.5736 60.5638 63.523 60.1961 63.5962C59.3983 63.7932 58.9445 64.5165 58.2832 64.9387C58.2179 64.9387 58.2031 65.1132 58.2832 65.1301L59.2945 65.2426C59.6177 65.2849 59.938 65.2849 60.2613 65.2426C60.5727 65.2032 60.8663 65.1019 61.1362 64.9471C61.4713 64.7811 61.8005 64.5981 62.1357 64.4236C62.4293 64.311 62.714 64.1759 62.9868 64.0212C62.6221 64.4912 62.2632 64.9696 61.9192 65.4565C61.5603 65.7436 61.1214 65.9716 60.7625 66.2136C60.3681 66.4585 60.0241 66.7568 59.7334 67.1087C59.164 67.8883 58.8318 68.7523 58.7369 69.6952C58.6568 70.2581 58.6331 70.8266 58.6094 71.3867C58.6094 71.4289 58.6242 71.4571 58.6598 71.4796C58.6954 71.5021 58.731 71.5049 58.7695 71.4852C59.6474 71.0377 60.4215 70.4607 61.0888 69.7571C61.4031 69.3997 61.6315 68.9972 61.7679 68.5497C61.8836 68.1022 61.9399 67.6462 61.934 67.1846C61.9192 66.6724 61.9726 66.1658 62.103 65.6676C62.1119 65.6479 62.1119 65.6282 62.103 65.6085C62.109 65.5916 62.109 65.5776 62.103 65.5607C62.4441 65.0766 62.803 64.5981 63.1707 64.1281C63.7431 63.3963 64.36 62.6983 65.0214 62.0341C64.7188 62.6252 64.4727 63.2359 64.2888 63.8692C64.2532 63.8776 64.2325 63.8973 64.2236 63.9311C64.0249 64.4461 63.8262 64.9556 63.666 65.4481C63.5088 65.8956 63.4287 66.3572 63.4258 66.83C63.4762 67.2916 63.6304 67.7194 63.8825 68.1162C64.1376 68.5103 64.4697 68.8368 64.879 69.0901C65.3417 69.4334 65.7747 69.8134 66.1691 70.2271C66.2492 70.3172 66.3678 70.2271 66.3619 70.1371C66.2966 69.6811 66.2581 69.2195 66.2403 68.7551C66.2462 68.3358 66.2225 67.9136 66.1691 67.4971C65.9467 66.709 65.5937 65.9772 65.1103 65.3046C64.8701 64.8739 64.6833 64.4236 64.5439 63.9536C64.7841 63.1205 65.1222 62.324 65.5552 61.5641L65.6827 61.4571C65.7153 61.4487 65.7331 61.429 65.7391 61.398C66.1572 61.0209 66.5962 60.6663 67.0559 60.3342C68.0197 59.639 69.0578 59.0564 70.1669 58.592C69.3247 59.3632 68.7197 60.2751 68.346 61.3305C68.2926 61.3558 68.2778 61.398 68.2985 61.4515C67.7499 62.369 66.9669 63.2106 66.783 64.2885C66.7178 64.6544 66.7445 65.0175 66.8631 65.3721C67.0885 65.9575 67.4414 66.4613 67.9159 66.8891C68.3845 67.2916 68.8205 67.725 69.2238 68.1866C69.2891 68.2767 69.4314 68.1866 69.4077 68.0881C68.9866 66.2362 69.989 64.2942 69.2713 62.4985C69.12 62.0876 68.8798 61.733 68.5536 61.429C68.8086 60.7169 69.1793 60.064 69.6628 59.4701C69.9771 59.0761 70.336 58.7215 70.7393 58.409Z" fill="#1F1F1F"/>
<path d="M74.4495 61.0044L73.8593 60.3204C73.9957 59.9067 74.1826 59.5127 74.4169 59.1384C74.3694 59.0764 74.3131 59.023 74.2656 58.9695C73.975 59.4282 73.7496 59.9123 73.5954 60.4274C72.9429 61.1029 72.5574 61.8966 72.4387 62.8085C72.4743 63.65 72.6819 64.4521 73.0615 65.212C73.2573 65.6708 73.4056 66.1408 73.5064 66.6249C73.5212 66.6756 73.5568 66.7037 73.6161 66.7037C73.6725 66.7037 73.7081 66.6756 73.7229 66.6249C73.9008 66.1802 74.15 65.7749 74.4732 65.4119C74.7372 65.0066 74.9389 64.5731 75.0782 64.1144C75.3985 63.2672 75.3541 62.4369 74.9418 61.6264C74.7935 61.4068 74.6304 61.1986 74.4495 61.0044Z" fill="#1F1F1F"/>
<path d="M13.4349 61.3C13.34 61.3 13.2747 61.2578 13.2451 61.1705C12.9426 60.253 10.7479 49.2455 10.1251 45.3615C10.1192 45.308 10.131 45.2602 10.1666 45.218C10.1993 45.1757 10.2467 45.1504 10.3001 45.142C10.4306 45.1251 10.5077 45.1785 10.5314 45.2996C11.1483 49.178 13.3311 60.1461 13.6366 61.0495C13.6514 61.1002 13.6455 61.148 13.6188 61.1959C13.5921 61.2437 13.5535 61.2747 13.5001 61.2915L13.4349 61.3Z" fill="#1F1F1F"/>
</svg>
